<?xml version="1.0" encoding="UTF-8"?>
<svg width="156px" height="53px" viewBox="0 0 156 53" version="1.1" xmlns="http://www.w3.org/2000/svg" xmlns:xlink="http://www.w3.org/1999/xlink">
    <!-- Generator: Sketch 46.2 (44496) - http://www.bohemiancoding.com/sketch -->
    <title>aircall-logotype</title>
    <desc>Created with Sketch.</desc>
    <defs>
        <linearGradient x1="50%" y1="0%" x2="50%" y2="100%" id="linearGradient-1">
            <stop stop-color="#2AC420" offset="0%"></stop>
            <stop stop-color="#2CAD00" offset="100%"></stop>
        </linearGradient>
        <linearGradient x1="171.428571%" y1="14.2857143%" x2="171.428571%" y2="28.5714286%" id="linearGradient-2">
            <stop stop-color="#2AC420" offset="0%"></stop>
            <stop stop-color="#2CAD00" offset="100%"></stop>
        </linearGradient>
    </defs>
    <g id="Page-1" stroke="none" stroke-width="1" fill="none" fill-rule="evenodd">
        <g id="aircall-logotype" fill-rule="nonzero">
            <path d="M152.285714,11.3571429 C152.285714,10.2214286 153.028571,9.46428571 154.142857,9.46428571 C155.257143,9.46428571 156,10.2214286 156,11.3571429 L156,35.9642857 C156,37.1 155.257143,37.8571429 154.142857,37.8571429 C153.028571,37.8571429 152.285714,37.1 152.285714,35.9642857 L152.285714,11.3571429 Z" id="Shape" fill="#424242"></path>
            <path d="M144.857143,11.3571429 C144.857143,10.2214286 145.6,9.46428571 146.714286,9.46428571 C147.828571,9.46428571 148.571429,10.2214286 148.571429,11.3571429 L148.571429,35.9642857 C148.571429,37.1 147.828571,37.8571429 146.714286,37.8571429 C145.6,37.8571429 144.857143,37.1 144.857143,35.9642857 L144.857143,11.3571429 Z" id="Shape" fill="#424242"></path>
            <path d="M139.285714,18.9285714 C138.171429,18.9285714 137.428571,19.6857143 137.428571,20.8214286 C135.942857,19.6857143 133.9,18.9285714 131.857143,18.9285714 C126.657143,18.9285714 122.571429,23.0928571 122.571429,28.3928571 C122.571429,33.6928571 126.657143,37.8571429 131.857143,37.8571429 C133.9,37.8571429 135.942857,37.1 137.428571,35.9642857 C137.428571,36.9107143 138.171429,37.8571429 139.285714,37.8571429 C140.4,37.8571429 141.142857,37.1 141.142857,35.9642857 L141.142857,20.8214286 C141.142857,19.875 140.4,18.9285714 139.285714,18.9285714 Z M131.857143,34.0714286 C128.7,34.0714286 126.285714,31.6107143 126.285714,28.3928571 C126.285714,25.175 128.7,22.7142857 131.857143,22.7142857 C135.014286,22.7142857 137.428571,25.175 137.428571,28.3928571 C137.428571,31.6107143 135.014286,34.0714286 131.857143,34.0714286 Z" id="Shape" fill="#424242"></path>
            <path d="M121.085714,21.2 C119.414286,19.875 117.371429,18.9285714 115.142857,18.9285714 C109.942857,18.9285714 105.857143,23.0928571 105.857143,28.3928571 C105.857143,33.6928571 109.942857,37.8571429 115.142857,37.8571429 C117.371429,37.8571429 119.6,37.1 121.271429,35.5857143 C122.014286,34.8285714 122.2,33.6928571 121.457143,32.9357143 C120.714286,32.1785714 119.6,31.9892857 118.857143,32.7464286 C117.928571,33.6928571 116.628571,34.0714286 115.142857,34.0714286 C111.985714,34.0714286 109.571429,31.6107143 109.571429,28.3928571 C109.571429,25.175 111.985714,22.7142857 115.142857,22.7142857 C116.442857,22.7142857 117.742857,23.0928571 118.671429,24.0392857 C119.414286,24.7964286 120.714286,24.6071429 121.271429,23.85 C122.014286,22.9035714 121.828571,21.7678571 121.085714,21.2 Z" id="Shape" fill="#424242"></path>
            <path d="M98.4285714,20.8214286 C99.9142857,19.6857143 101.957143,18.9285714 104,18.9285714 C105.114286,18.9285714 105.857143,19.6857143 105.857143,20.8214286 C105.857143,21.9571429 105.114286,22.7142857 104,22.7142857 C100.842857,22.7142857 98.4285714,25.175 98.4285714,28.3928571 L98.4285714,35.9642857 C98.4285714,36.9107143 97.6857143,37.8571429 96.5714286,37.8571429 C95.4571429,37.8571429 94.7142857,36.9107143 94.7142857,35.9642857 L94.7142857,20.8214286 C94.7142857,19.875 95.4571429,18.9285714 96.5714286,18.9285714 C97.6857143,18.9285714 98.4285714,19.875 98.4285714,20.8214286 L98.4285714,20.8214286 Z" id="Shape" fill="#424242"></path>
            <ellipse id="Oval" fill="url(#linearGradient-1)" cx="89.1428571" cy="11.3571429" rx="3.71428571" ry="3.78571429"></ellipse>
            <path d="M87.2857143,20.8214286 C87.2857143,19.875 88.0285714,18.9285714 89.1428571,18.9285714 C90.2571429,18.9285714 91,19.875 91,20.8214286 L91,35.9642857 C91,36.9107143 90.2571429,37.8571429 89.1428571,37.8571429 C88.0285714,37.8571429 87.2857143,36.9107143 87.2857143,35.9642857 L87.2857143,20.8214286 Z" id="Shape" fill="#424242"></path>
            <path d="M81.7142857,18.9285714 C80.6,18.9285714 79.8571429,19.6857143 79.8571429,20.8214286 C78.3714286,19.6857143 76.3285714,18.9285714 74.2857143,18.9285714 C69.0857143,18.9285714 65,23.0928571 65,28.3928571 C65,33.6928571 69.0857143,37.8571429 74.2857143,37.8571429 C76.3285714,37.8571429 78.3714286,37.1 79.8571429,35.9642857 C79.8571429,36.9107143 80.6,37.8571429 81.7142857,37.8571429 C82.8285714,37.8571429 83.5714286,37.1 83.5714286,35.9642857 L83.5714286,20.8214286 C83.5714286,19.875 82.8285714,18.9285714 81.7142857,18.9285714 Z M74.2857143,34.0714286 C71.1285714,34.0714286 68.7142857,31.6107143 68.7142857,28.3928571 C68.7142857,25.175 71.1285714,22.7142857 74.2857143,22.7142857 C77.4428571,22.7142857 79.8571429,25.175 79.8571429,28.3928571 C79.8571429,31.6107143 77.4428571,34.0714286 74.2857143,34.0714286 Z" id="Shape" fill="#424242"></path>
            <path d="M26,3.78571429 C13.7428571,3.78571429 3.71428571,14.0071429 3.71428571,26.5 C3.71428571,38.9928571 13.7428571,49.2142857 26,49.2142857 C38.2571429,49.2142857 48.2857143,38.9928571 48.2857143,26.5 C48.2857143,14.0071429 38.2571429,3.78571429 26,3.78571429 Z M26,53 C11.7,53 0,41.075 0,26.5 C0,11.925 11.7,0 26,0 C40.3,0 52,11.925 52,26.5 C52,41.075 40.3,53 26,53 Z M39,34.2607143 C39,34.8285714 38.6285714,35.2071429 38.2571429,35.5857143 C37.7,36.3428571 37.1428571,36.9107143 36.5857143,37.4785714 C36.0285714,38.0464286 35.4714286,38.425 34.9142857,38.8035714 C33.4285714,39.5607143 31.7571429,39.9392857 30.0857143,39.75 C27.6714286,39.5607143 25.4428571,38.425 23.4,37.1 C21.9142857,36.1535714 20.4285714,34.8285714 19.1285714,33.5035714 C16.9,31.4214286 15.0428571,28.7714286 13.9285714,25.9321429 C13,23.4714286 12.4428571,20.4428571 13.5571429,17.9821429 C14.3,16.2785714 15.7857143,15.1428571 17.0857143,14.0071429 C17.4571429,13.8178571 17.6428571,13.4392857 18.0142857,13.25 C18.3857143,13.0607143 18.5714286,13.25 18.9428571,13.25 C19.6857143,13.6285714 20.2428571,14.1964286 20.6142857,14.7642857 C20.9857143,15.3321429 21.3571429,16.0892857 21.7285714,16.8464286 C22.1,17.6035714 22.4714286,18.3607143 22.4714286,19.1178571 C22.4714286,19.6857143 22.2857143,20.2535714 21.9142857,20.6321429 C21.5428571,21.0107143 20.9857143,21.5785714 20.6142857,21.9571429 C19.6857143,23.0928571 19.3142857,24.6071429 19.3142857,26.1214286 C19.3142857,28.0142857 20.0571429,29.9071429 21.3571429,31.2321429 C23.4,33.3142857 26.9285714,33.8821429 29.5285714,32.5571429 C30.0857143,32.1785714 30.6428571,31.8 31.2,31.2321429 C31.5714286,30.8535714 31.9428571,30.475 32.3142857,30.0964286 C33.4285714,29.3392857 35.1,30.0964286 36.2142857,30.6642857 C36.2142857,30.6642857 36.2142857,30.6642857 36.4,30.6642857 C37.7,31.2321429 38.6285714,32.3678571 39,33.6928571 C39,33.8821429 39,34.0714286 39,34.2607143 C39,34.45 39,34.2607143 39,34.2607143 L39,34.2607143 Z" id="Shape" fill="url(#linearGradient-2)"></path>
        </g>
    </g>
</svg>