<?xml version="1.0" encoding="UTF-8"?>
<svg width="57px" height="56px" viewBox="0 0 84 37" version="1.1" xmlns="http://www.w3.org/2000/svg" xmlns:xlink="http://www.w3.org/1999/xlink">
    <!-- Generator: Sketch 46.2 (44496) - http://www.bohemiancoding.com/sketch -->
    <title>noun_136072_cc</title>
    <desc>Created with Sketch.</desc>
    <defs></defs>
    <g id="Page-1" stroke="none" stroke-width="1" fill="none" fill-rule="evenodd">
        <g id="noun_136072_cc" fill-rule="nonzero" fill="#4ABE2D">
            <path d="M78.307,0.729 C75.545,0.729 73.307,2.967 73.307,5.729 C73.307,6.468 73.477,7.164 73.765,7.795 L56.5,23.315 C55.756,22.875 54.897,22.605 53.971,22.605 C52.443,22.605 51.092,23.306 50.174,24.386 L34.59,17.85 C34.604,17.699 34.635,17.552 34.635,17.397 C34.635,14.636 32.396,12.398 29.635,12.398 C26.874,12.398 24.635,14.636 24.635,17.397 C24.635,17.8 24.696,18.187 24.786,18.563 L8.597,28.295 C7.715,27.516 6.569,27.027 5.299,27.027 C2.538,27.027 0.3,29.265 0.3,32.025 C0.3,34.787 2.538,37.027 5.299,37.027 C8.061,37.027 10.3,34.787 10.3,32.025 C10.3,31.623 10.24,31.236 10.15,30.861 L26.339,21.131 C27.22,21.91 28.366,22.399 29.635,22.399 C31.163,22.399 32.514,21.698 33.432,20.618 L49.017,27.155 C49.003,27.305 48.971,27.452 48.971,27.606 C48.971,30.368 51.209,32.606 53.971,32.606 C56.733,32.606 58.971,30.368 58.971,27.606 C58.971,26.867 58.801,26.171 58.514,25.541 L75.778,10.021 C76.522,10.46 77.38,10.73 78.307,10.73 C81.069,10.73 83.307,8.492 83.307,5.73 C83.307,2.968 81.068,0.729 78.307,0.729 Z" id="Shape"></path>
        </g>
    </g>
</svg>