<?xml version="1.0" encoding="UTF-8"?>
<svg width="57px" height="56px" viewBox="0 0 57 56" version="1.1" xmlns="http://www.w3.org/2000/svg" xmlns:xlink="http://www.w3.org/1999/xlink">
    <!-- Generator: Sketch 46.2 (44496) - http://www.bohemiancoding.com/sketch -->
    <title>Group</title>
    <desc>Created with Sketch.</desc>
    <defs></defs>
    <g id="Page-1" stroke="none" stroke-width="1" fill="none" fill-rule="evenodd">
        <g id="noun_1602236_cc" fill-rule="nonzero" fill="#4ABE2D">
            <g id="Group">
                <path d="M53.537,21 L48.799,21 C48.556,20.317 48.269,19.632 47.942,18.95 L51.298,15.593 C51.947,14.944 52.311,14.084 52.32,13.174 C52.331,12.254 51.981,11.393 51.336,10.747 L46.244,5.655 C44.96,4.371 42.702,4.388 41.398,5.693 L38.047,9.044 C37.366,8.716 36.679,8.428 35.99,8.182 L35.99,3.455 C35.991,1.55 34.466,0 32.592,0 L25.391,0 C23.517,0 21.992,1.55 21.992,3.455 L21.992,8.182 C21.304,8.428 20.616,8.716 19.935,9.044 L16.585,5.694 C15.28,4.388 13.023,4.372 11.738,5.655 L6.646,10.747 C5.321,12.072 5.338,14.247 6.685,15.594 L10.04,18.95 C9.713,19.632 9.426,20.317 9.183,21 L4.446,21 C2.541,21 0.991,22.525 0.991,24.399 L0.991,31.6 C0.991,33.474 2.541,34.999 4.446,34.999 L9.197,34.999 C9.442,35.683 9.727,36.364 10.052,37.038 L6.685,40.405 C6.036,41.054 5.671,41.914 5.662,42.825 C5.651,43.746 6.001,44.607 6.646,45.252 L11.738,50.344 C13.022,51.628 15.28,51.612 16.585,50.305 L19.959,46.931 C20.634,47.255 21.313,47.54 21.991,47.783 L21.991,52.546 C21.991,54.45 23.516,56 25.39,56 L32.591,56 C34.465,56 35.99,54.45 35.99,52.546 L35.99,47.783 C36.668,47.541 37.347,47.256 38.022,46.931 L41.397,50.306 C42.701,51.611 44.959,51.628 46.243,50.344 L51.335,45.252 C51.981,44.607 52.33,43.746 52.319,42.826 C52.309,41.915 51.946,41.055 51.297,40.406 L47.929,37.038 C48.254,36.364 48.539,35.683 48.784,34.999 L53.536,34.999 C55.44,34.999 56.99,33.474 56.99,31.6 L56.99,24.399 C56.991,22.525 55.441,21 53.537,21 Z M54.991,31.601 C54.991,32.372 54.339,33 53.537,33 L48.066,33 C47.629,33 47.244,33.283 47.112,33.699 C46.788,34.728 46.355,35.761 45.826,36.771 C45.623,37.158 45.695,37.632 46.005,37.942 L49.884,41.821 C50.161,42.098 50.317,42.464 50.321,42.849 C50.326,43.226 50.184,43.577 49.923,43.838 L44.831,48.93 C44.3,49.458 43.362,49.441 42.813,48.892 L38.928,45.007 C38.618,44.698 38.146,44.625 37.758,44.827 C36.741,45.357 35.709,45.789 34.692,46.109 C34.275,46.24 33.992,46.627 33.992,47.063 L33.992,52.544 C33.992,53.346 33.364,53.998 32.593,53.998 L25.392,53.998 C24.621,53.998 23.993,53.346 23.993,52.544 L23.993,47.063 C23.993,46.626 23.71,46.24 23.293,46.109 C22.275,45.789 21.243,45.357 20.227,44.827 C20.081,44.751 19.922,44.714 19.764,44.714 C19.505,44.714 19.249,44.815 19.057,45.007 L15.173,48.891 C14.623,49.441 13.682,49.458 13.154,48.93 L8.062,43.838 C7.8,43.576 7.659,43.226 7.664,42.849 C7.668,42.463 7.823,42.098 8.102,41.82 L11.98,37.942 C12.29,37.632 12.362,37.158 12.159,36.771 C11.63,35.761 11.197,34.728 10.873,33.699 C10.738,33.283 10.353,33 9.916,33 L4.446,33 C3.643,33 2.991,32.372 2.991,31.601 L2.991,24.4 C2.991,23.628 3.644,23 4.446,23 L9.903,23 C10.341,23 10.727,22.716 10.857,22.299 C11.176,21.278 11.61,20.241 12.145,19.216 C12.347,18.828 12.274,18.355 11.965,18.046 L8.1,14.18 C7.533,13.613 7.515,12.707 8.061,12.161 L13.153,7.069 C13.68,6.542 14.622,6.559 15.172,7.108 L19.032,10.968 C19.342,11.278 19.816,11.349 20.203,11.147 C21.222,10.614 22.261,10.178 23.292,9.854 C23.709,9.723 23.992,9.336 23.992,8.9 L23.992,3.455 C23.991,2.652 24.619,2 25.391,2 L32.592,2 C33.363,2 33.991,2.652 33.991,3.455 L33.991,8.9 C33.991,9.337 34.274,9.723 34.691,9.854 C35.722,10.178 36.761,10.614 37.78,11.147 C38.165,11.349 38.64,11.278 38.951,10.968 L42.812,7.107 C43.361,6.557 44.298,6.541 44.83,7.069 L49.922,12.161 C50.468,12.707 50.45,13.612 49.884,14.179 L46.017,18.046 C45.708,18.355 45.635,18.828 45.837,19.216 C46.373,20.241 46.806,21.278 47.125,22.299 C47.255,22.716 47.642,23 48.079,23 L53.537,23 C54.339,23 54.991,23.628 54.991,24.399 L54.991,31.601 Z" id="Shape"></path>
                <path d="M28.991,15.982 C22.374,15.982 16.991,21.365 16.991,27.982 C16.991,34.599 22.374,39.982 28.991,39.982 C35.608,39.982 40.991,34.599 40.991,27.982 C40.991,21.365 35.608,15.982 28.991,15.982 Z M28.991,37.982 C23.477,37.982 18.991,33.496 18.991,27.982 C18.991,22.468 23.477,17.982 28.991,17.982 C34.505,17.982 38.991,22.468 38.991,27.982 C38.991,33.496 34.505,37.982 28.991,37.982 Z" id="Shape"></path>
            </g>
        </g>
    </g>
</svg>