<svg xmlns="http://www.w3.org/2000/svg" xmlns:xlink="http://www.w3.org/1999/xlink" width="1610" height="1610" viewBox="0 0 1610 1610">
  <defs>
    <linearGradient id="header-bg2-a" x1="50%" x2="50%" y1="0%" y2="100%">
      <stop offset="0%" stop-color="#E8F9FF"/>
      <stop offset="100%" stop-color="#FFFFFF"/>
    </linearGradient>
    <linearGradient id="header-bg2-c" x1="50%" x2="50%" y1="0%" y2="100%">
      <stop offset="0%" stop-color="#FFFFFF"/>
      <stop offset="100%" stop-color="#E8F9FF"/>
    </linearGradient>
  </defs>
  <path fill="url(#header-bg2-a)" d="M26.8748082,839.932201 C72.4228226,699.787142 132.173145,568.17569 206.125774,445.097846 C280.078404,322.020002 368.233342,207.475764 470.590587,101.465135 C548.105341,21.1836871 664.615379,-7.865528 770.746701,26.6278106 C910.891761,72.175825 1042.50321,131.926147 1165.58106,205.878777 C1288.6589,279.831407 1403.20314,367.986344 1509.21377,470.34359 C1589.49522,547.858344 1618.54443,664.368382 1584.05109,770.499704 C1538.50308,910.644763 1478.75276,1042.25621 1404.80013,1165.33406 C1330.8475,1288.4119 1242.69256,1402.95614 1140.33531,1508.96677 C1062.82056,1589.24822 946.310521,1618.29743 840.179199,1583.80409 C700.03414,1538.25608 568.422688,1478.50576 445.344844,1404.55313 C322.266999,1330.6005 207.722762,1242.44556 101.712132,1140.08832 C21.4306847,1062.57356 -7.61853038,946.063523 26.8748082,839.932201 Z"/>
  <path fill="url(#header-bg2-c)" d="M104.299216,797.572752 C133.27021,681.415165 174.234639,571.36854 227.192505,467.432876 C280.150372,363.497211 345.101674,265.672508 422.046413,173.958765 C480.316372,104.504296 573.09223,74.3595925 661.05793,96.2992161 C777.215516,125.27021 887.262142,166.234639 991.197806,219.192505 C1095.13347,272.150372 1192.95817,337.101674 1284.67192,414.046413 C1354.12639,472.316372 1384.27109,565.09223 1362.33147,653.05793 C1333.36047,769.215516 1292.39604,879.262142 1239.43818,983.197806 C1186.48031,1087.13347 1121.52901,1184.95817 1044.58427,1276.67192 C986.314309,1346.12639 893.538452,1376.27109 805.572752,1354.33147 C689.415165,1325.36047 579.36854,1284.39604 475.432876,1231.43818 C371.497211,1178.48031 273.672508,1113.52901 181.958765,1036.58427 C112.504296,978.314309 82.3595925,885.538452 104.299216,797.572752 Z"/>
</svg>
