<svg xmlns="http://www.w3.org/2000/svg" width="150" height="80" viewBox="0 0 150 80">
  <g transform="translate(15 32)">
    <path d="M17.9079563,5.67476636 C17.9079563,2.89906542 17.9079563,2.38504673 17.8876755,1.78878505 C17.8471139,1.17196262 17.6848674,0.96635514 17.0764431,0.801869159 C16.9344774,0.760747664 16.6099844,0.740186916 16.326053,0.740186916 C16.1435257,0.740186916 16.0015601,0.678504673 16.0015601,0.555140187 C16.0015601,0.431775701 16.1435257,0.390654206 16.4274571,0.390654206 C17.400936,0.390654206 18.5975039,0.431775701 19.124805,0.431775701 C19.6926677,0.431775701 21.0312012,0.390654206 22.1669267,0.390654206 C24.49922,0.390654206 27.6630265,0.390654206 29.6911076,2.48785047 C30.624025,3.43364486 31.4555382,4.97570093 31.4555382,7.15514019 C31.4555382,9.45794393 30.4820593,11.2056075 29.4071763,12.2747664 C28.5553822,13.1383178 26.5678627,14.4336449 23.1404056,14.4336449 C22.450858,14.4336449 21.6599064,14.3719626 20.9095164,14.3308411 C20.1591264,14.2691589 19.4898596,14.2280374 19.0234009,14.2280374 C18.8205928,14.2280374 18.4149766,14.2485981 17.9687988,14.2485981 C17.5226209,14.2691589 17.0561622,14.2897196 16.6708268,14.2897196 C16.4274571,14.2897196 16.3057722,14.2280374 16.3057722,14.1046729 C16.3057722,14.0224299 16.3666147,13.9196262 16.6099844,13.9196262 C16.8939158,13.9196262 17.0967239,13.8990654 17.2792512,13.8579439 C17.6645866,13.7757009 17.7659906,13.4261682 17.8268331,12.8915888 C17.9079563,12.1102804 17.9079563,10.671028 17.9079563,8.98504673 L17.9079563,5.67476636 Z M20.4227769,7.71028037 C20.4227769,9.64299065 20.4430577,11.0616822 20.4633385,11.411215 C20.4836193,11.8635514 20.524181,12.5214953 20.6661466,12.7065421 C20.9095164,13.0560748 21.6396256,13.446729 23.1201248,13.446729 C24.8237129,13.446729 26.0811232,13.1383178 27.1965679,12.1925234 C28.4134165,11.1850467 28.798752,9.54018692 28.798752,7.64859813 C28.798752,5.32523364 27.8861154,3.80373832 27.0546022,3.08411215 C25.3307332,1.52149533 23.2823713,1.3364486 21.8221529,1.3364486 C21.4368175,1.3364486 20.8283931,1.37757009 20.6661466,1.45981308 C20.5039002,1.52149533 20.4227769,1.60373832 20.4227769,1.82990654 C20.4024961,2.44672897 20.4024961,3.9682243 20.4024961,5.40747664 L20.4024961,7.71028037 L20.4227769,7.71028037 Z M33.5444618,7.29906542 C33.5444618,4.17383178 35.7145086,0.123364486 41.3931357,0.123364486 C46.1185647,0.123364486 49.0592824,2.77570093 49.0592824,6.99065421 C49.0592824,11.2056075 46.0374415,14.4953271 41.2106084,14.4953271 C35.7550702,14.4747664 33.5444618,10.5476636 33.5444618,7.29906542 Z M46.2605304,7.64859813 C46.2605304,3.59813084 43.8471139,1.08971963 40.8455538,1.08971963 C38.7566303,1.08971963 36.3229329,2.22056075 36.3229329,6.74392523 C36.3229329,10.5271028 38.4524181,13.4878505 41.9812793,13.4878505 C43.299532,13.4878505 46.2605304,12.871028 46.2605304,7.64859813 Z M68.3057722,5.67476636 C68.3057722,2.89906542 68.3057722,2.38504673 68.2854914,1.78878505 C68.2449298,1.17196262 68.0826833,0.96635514 67.474259,0.801869159 C67.3322933,0.760747664 67.0078003,0.740186916 66.723869,0.740186916 C66.5413417,0.740186916 66.399376,0.678504673 66.399376,0.555140187 C66.399376,0.431775701 66.5413417,0.390654206 66.825273,0.390654206 C67.798752,0.390654206 68.9953198,0.431775701 69.5226209,0.431775701 C70.1107644,0.431775701 74.2683307,0.452336449 74.6333853,0.431775701 C74.9781591,0.411214953 75.2620905,0.34953271 75.424337,0.328971963 C75.525741,0.308411215 75.6271451,0.246728972 75.7285491,0.246728972 C75.8299532,0.246728972 75.850234,0.328971963 75.850234,0.411214953 C75.850234,0.534579439 75.74883,0.760747664 75.7082683,1.60373832 C75.6879875,1.78878505 75.6474259,2.59065421 75.6068643,2.81682243 C75.5865835,2.89906542 75.5460218,3.12523364 75.4040562,3.12523364 C75.2823713,3.12523364 75.2620905,3.04299065 75.2620905,2.87850467 C75.2620905,2.75514019 75.2418097,2.42616822 75.1404056,2.22056075 C74.9984399,1.89158879 74.8361934,1.64485981 73.9032761,1.54205607 C73.5787832,1.50093458 71.3478939,1.45981308 70.9625585,1.45981308 C70.8814353,1.45981308 70.8408736,1.52149533 70.8408736,1.62429907 L70.8408736,6.14766355 C70.8408736,6.25046729 70.8611544,6.33271028 70.9625585,6.33271028 C71.3884555,6.33271028 73.8221529,6.33271028 74.2480499,6.29158879 C74.6942278,6.25046729 74.9781591,6.20934579 75.1404056,6.00373832 C75.2823713,5.88037383 75.3432137,5.75700935 75.4446178,5.75700935 C75.525741,5.75700935 75.5865835,5.83925234 75.5865835,5.94205607 C75.5865835,6.04485981 75.5460218,6.35327103 75.4446178,7.27850467 C75.4040562,7.64859813 75.3634945,8.3682243 75.3634945,8.51214953 C75.3634945,8.65607477 75.3432137,8.92336449 75.1809672,8.92336449 C75.0592824,8.92336449 75.0187207,8.86168224 75.0187207,8.77943925 C74.9984399,8.59439252 74.9984399,8.34766355 74.9578783,8.10093458 C74.8564743,7.73084112 74.6131045,7.4635514 73.9235569,7.38130841 C73.5787832,7.34018692 71.449298,7.29906542 70.9828393,7.29906542 C70.9017161,7.29906542 70.8814353,7.38130841 70.8814353,7.48411215 L70.8814353,8.94392523 C70.8814353,9.56074766 70.8611544,11.1233645 70.8814353,11.6579439 C70.9219969,12.9121495 71.4898596,13.1794393 73.4165367,13.1794393 C73.9032761,13.1794393 74.6942278,13.1588785 75.1809672,12.9327103 C75.6474259,12.7065421 75.8705148,12.3364486 75.9921997,11.5757009 C76.0327613,11.3906542 76.0733229,11.2878505 76.1950078,11.2878505 C76.3369735,11.2878505 76.3572543,11.5345794 76.3572543,11.7196262 C76.3572543,12.1308411 76.2152886,13.3850467 76.0936037,13.7551402 C75.9719189,14.2280374 75.7893916,14.2280374 75.099844,14.2280374 C73.700468,14.2280374 72.5647426,14.2074766 71.6521061,14.1663551 C70.7394696,14.1457944 70.0296412,14.1252336 69.4820593,14.1252336 C69.2792512,14.1252336 68.8736349,14.1457944 68.4274571,14.1457944 C67.9812793,14.1663551 67.5148206,14.1869159 67.1294852,14.1869159 C66.8861154,14.1869159 66.7644306,14.1252336 66.7644306,14.0018692 C66.7644306,13.9196262 66.825273,13.8168224 67.0686427,13.8168224 C67.3525741,13.8168224 67.5553822,13.7962617 67.7176287,13.7551402 C68.1029641,13.6728972 68.2043682,13.3233645 68.2652106,12.788785 C68.3463339,12.0074766 68.3463339,10.5682243 68.3463339,8.88224299 L68.3463339,5.67476636 L68.3057722,5.67476636 Z M108.482059,5.67476636 C108.482059,2.89906542 108.482059,2.38504673 108.461778,1.78878505 C108.421217,1.17196262 108.25897,0.96635514 107.650546,0.801869159 C107.50858,0.760747664 107.184087,0.740186916 106.900156,0.740186916 C106.717629,0.740186916 106.575663,0.678504673 106.575663,0.555140187 C106.575663,0.431775701 106.717629,0.390654206 107.00156,0.390654206 C107.975039,0.390654206 109.171607,0.431775701 109.698908,0.431775701 C110.287051,0.431775701 114.444618,0.452336449 114.809672,0.431775701 C115.154446,0.411214953 115.438378,0.34953271 115.600624,0.328971963 C115.702028,0.308411215 115.803432,0.246728972 115.904836,0.246728972 C116.00624,0.246728972 116.026521,0.328971963 116.026521,0.411214953 C116.026521,0.534579439 115.925117,0.760747664 115.884555,1.60373832 C115.864275,1.78878505 115.823713,2.59065421 115.783151,2.81682243 C115.762871,2.89906542 115.722309,3.12523364 115.580343,3.12523364 C115.458658,3.12523364 115.438378,3.04299065 115.438378,2.87850467 C115.438378,2.75514019 115.418097,2.42616822 115.316693,2.22056075 C115.174727,1.89158879 115.01248,1.64485981 114.079563,1.54205607 C113.75507,1.50093458 111.524181,1.45981308 111.138846,1.45981308 C111.057722,1.45981308 111.017161,1.52149533 111.017161,1.62429907 L111.017161,6.14766355 C111.017161,6.25046729 111.037441,6.33271028 111.138846,6.33271028 C111.564743,6.33271028 113.99844,6.33271028 114.424337,6.29158879 C114.870515,6.25046729 115.154446,6.20934579 115.316693,6.00373832 C115.458658,5.88037383 115.519501,5.75700935 115.620905,5.75700935 C115.702028,5.75700935 115.762871,5.83925234 115.762871,5.94205607 C115.762871,6.04485981 115.722309,6.35327103 115.620905,7.27850467 C115.580343,7.64859813 115.539782,8.3682243 115.539782,8.51214953 C115.539782,8.65607477 115.519501,8.92336449 115.357254,8.92336449 C115.235569,8.92336449 115.195008,8.86168224 115.195008,8.77943925 C115.174727,8.59439252 115.174727,8.34766355 115.134165,8.10093458 C115.032761,7.73084112 114.789392,7.4635514 114.099844,7.38130841 C113.75507,7.34018692 111.625585,7.29906542 111.159126,7.29906542 C111.078003,7.29906542 111.057722,7.38130841 111.057722,7.48411215 L111.057722,8.94392523 C111.057722,9.56074766 111.037441,11.1233645 111.057722,11.6579439 C111.098284,12.9121495 111.666147,13.1794393 113.592824,13.1794393 C114.079563,13.1794393 114.870515,13.1588785 115.357254,12.9327103 C115.823713,12.7065421 116.046802,12.3364486 116.168487,11.5757009 C116.209048,11.3906542 116.24961,11.2878505 116.371295,11.2878505 C116.513261,11.2878505 116.533541,11.5345794 116.533541,11.7196262 C116.533541,12.1308411 116.391576,13.3850467 116.269891,13.7551402 C116.148206,14.2280374 115.965679,14.2280374 115.276131,14.2280374 C113.876755,14.2280374 112.74103,14.2074766 111.828393,14.1663551 C110.915757,14.1457944 110.205928,14.1252336 109.658346,14.1252336 C109.455538,14.1252336 109.049922,14.1457944 108.603744,14.1457944 C108.157566,14.1663551 107.691108,14.1869159 107.305772,14.1869159 C107.062402,14.1869159 106.940718,14.1252336 106.940718,14.0018692 C106.940718,13.9196262 107.00156,13.8168224 107.24493,13.8168224 C107.528861,13.8168224 107.731669,13.7962617 107.914197,13.7551402 C108.299532,13.6728972 108.400936,13.3233645 108.461778,12.788785 C108.542902,12.0074766 108.542902,10.5682243 108.542902,8.88224299 L108.542902,5.67476636 L108.482059,5.67476636 Z M5.11076443,9.6635514 C5.00936037,9.6635514 4.98907956,9.68411215 4.94851794,9.78691589 L3.95475819,12.2747664 C3.77223089,12.7271028 3.67082683,13.1794393 3.67082683,13.4056075 C3.67082683,13.7345794 3.83307332,13.9196262 4.42121685,13.9196262 L4.70514821,13.9196262 C4.94851794,13.9196262 4.98907956,14.0018692 4.98907956,14.1046729 C4.98907956,14.2485981 4.88767551,14.2897196 4.68486739,14.2897196 C4.07644306,14.2897196 3.20436817,14.2280374 2.59594384,14.2280374 C2.41341654,14.2280374 1.39937598,14.2897196 0.425897036,14.2897196 C0.182527301,14.2897196 0.0811232449,14.2485981 0.0811232449,14.1046729 C0.0811232449,14.0018692 0.141965679,13.9196262 0.283931357,13.9196262 C0.446177847,13.9196262 0.669266771,13.8990654 0.831513261,13.8990654 C1.68330733,13.7757009 2.00780031,13.2 2.39313573,12.2747664 L7.28081123,0.822429907 C7.50390016,0.308411215 7.64586583,0.0822429907 7.82839314,0.0822429907 C8.11232449,0.0822429907 8.19344774,0.246728972 8.37597504,0.657943925 C8.82215289,1.66542056 11.9453978,9.10841121 13.1419657,11.8841121 C13.8720749,13.5495327 14.399376,13.7757009 14.7441498,13.8579439 C15.0280811,13.8990654 15.2308892,13.9196262 15.4539782,13.9196262 C15.6162246,13.9196262 15.7176287,13.9813084 15.7176287,14.1046729 C15.7176287,14.2485981 15.6162246,14.2897196 14.9063963,14.2897196 C14.2371295,14.2897196 12.8783151,14.2897196 11.3166927,14.2485981 C10.9719189,14.2280374 10.7691108,14.2280374 10.7691108,14.1046729 C10.7691108,14.0018692 10.8096724,13.9401869 11.0124805,13.9196262 C11.1341654,13.8990654 11.276131,13.7345794 11.174727,13.5084112 L9.73478939,9.78691589 C9.67394696,9.68411215 9.61310452,9.6635514 9.53198128,9.6635514 L5.11076443,9.6635514 Z M9.12636505,8.65607477 C9.2074883,8.65607477 9.22776911,8.61495327 9.2074883,8.55327103 L7.44305772,3.94766355 C7.42277691,3.88598131 7.4024961,3.78317757 7.36193448,3.78317757 C7.30109204,3.78317757 7.28081123,3.88598131 7.26053042,3.94766355 L5.45553822,8.53271028 C5.4149766,8.61495327 5.45553822,8.65607477 5.51638066,8.65607477 L9.12636505,8.65607477 Z M89.7831513,0.575700935 C89.8237129,0.26728972 89.9859594,0.102803738 90.1482059,0.102803738 C90.3307332,0.102803738 90.4726989,0.185046729 90.7160686,0.678504673 L95.7457098,10.8149533 L100.775351,0.534579439 C100.917317,0.226168224 101.099844,0.0822429907 101.26209,0.0822429907 C101.404056,0.0822429907 101.627145,0.26728972 101.687988,0.657943925 L103.391576,11.9457944 C103.553822,13.0971963 103.736349,13.5906542 104.304212,13.7551402 C104.831513,13.8990654 105.135725,13.9196262 105.358814,13.9196262 C105.521061,13.9196262 105.663027,13.9813084 105.663027,14.0841121 C105.663027,14.2280374 105.460218,14.3102804 105.176287,14.3102804 C104.709828,14.3102804 102.053042,14.2485981 101.302652,14.2074766 C100.856474,14.1869159 100.75507,14.1046729 100.75507,14.0018692 C100.75507,13.9196262 100.836193,13.8579439 100.957878,13.8168224 C101.059282,13.7757009 101.099844,13.5495327 101.039002,13.035514 L100.00468,5.14018692 L99.9438378,5.14018692 L95.9282371,13.2616822 C95.5023401,14.1252336 95.400936,14.2897196 95.1778471,14.2897196 C94.9344774,14.2897196 94.7316693,13.9196262 94.4274571,13.364486 C93.9812793,12.5214953 92.4804992,9.72523364 92.2776911,9.19065421 C92.1357254,8.8411215 91.0202808,6.62056075 90.4118565,5.34579439 L90.351014,5.34579439 L89.4383775,12.4392523 C89.3978159,12.7682243 89.3775351,12.9943925 89.3775351,13.3028037 C89.3775351,13.6523364 89.6411856,13.7757009 89.9453978,13.8373832 C90.2698908,13.8990654 90.4321373,13.9196262 90.6146646,13.9196262 C90.7769111,13.9196262 90.9188768,14.0018692 90.9188768,14.0841121 C90.9188768,14.2485981 90.7566303,14.3102804 90.4726989,14.3102804 C89.6817473,14.3102804 88.8299532,14.2485981 88.4851794,14.2485981 C88.1201248,14.2485981 87.2277691,14.3102804 86.6396256,14.3102804 C86.4570983,14.3102804 86.2948518,14.2691589 86.2948518,14.0841121 C86.2948518,14.0018692 86.3962559,13.9196262 86.599064,13.9196262 C86.7410296,13.9196262 86.8829953,13.9196262 87.1669267,13.8785047 C87.673947,13.8168224 87.8564743,13.0766355 87.9375975,12.4803738 L89.7831513,0.575700935 Z"/>
    <path d="M64.7769111,14.2485981 C64.4929797,14.0635514 64.2293292,13.8579439 63.9656786,13.6728972 C63.0733229,12.9943925 62.2215289,12.2542056 61.4305772,11.4523364 C60.5585023,10.4448598 59.5444618,9.19065421 58.3884555,7.73084112 C58.5304212,7.62803738 58.6521061,7.5046729 58.773791,7.40186916 C60.3151326,6.06542056 60.9843994,4.93457944 60.9843994,3.68037383 C60.9843994,2.44672897 60.1934477,1.52149533 59.6661466,1.15140187 C58.6723869,0.472897196 57.3135725,0.370093458 56.1170047,0.370093458 C55.549142,0.370093458 53.8455538,0.411214953 53.1965679,0.411214953 C52.8112324,0.411214953 51.6146646,0.370093458 50.6411856,0.370093458 C50.3572543,0.370093458 50.2152886,0.411214953 50.2152886,0.534579439 C50.2152886,0.657943925 50.3369735,0.719626168 50.5397816,0.719626168 C50.8237129,0.719626168 51.1279251,0.740186916 51.2901716,0.781308411 C51.8783151,0.945794393 52.0608424,1.15140187 52.1014041,1.7682243 C52.1216849,2.34392523 52.1216849,2.85794393 52.1216849,5.65420561 L52.1216849,8.88224299 C52.1216849,10.5682243 52.1216849,12.0074766 52.0405616,12.788785 C51.9797192,13.3233645 51.8783151,13.6728972 51.4929797,13.7551402 C51.3307332,13.7962617 51.1076443,13.8168224 50.8237129,13.8168224 C50.5803432,13.8168224 50.5195008,13.9196262 50.5195008,14.0018692 C50.5195008,14.1252336 50.6411856,14.1869159 50.8845554,14.1869159 C51.6349454,14.1869159 52.8112324,14.1252336 53.1762871,14.1252336 C53.4602184,14.1252336 55.0015601,14.1869159 56.0967239,14.1869159 C56.3400936,14.1869159 56.4820593,14.1252336 56.4820593,14.0018692 C56.4820593,13.9196262 56.400936,13.8168224 56.2386895,13.8168224 C55.9953198,13.8168224 55.6099844,13.7962617 55.326053,13.7551402 C54.7581903,13.6728972 54.6567863,13.3233645 54.5959438,12.788785 C54.5148206,12.0074766 54.4945398,10.588785 54.4945398,8.88224299 L54.4945398,8.61495327 C54.4945398,8.51214953 54.5553822,8.47102804 54.6365055,8.47102804 L56.1778471,8.51214953 C56.1778471,8.51214953 56.5429017,8.53271028 56.6443058,8.63551402 C56.8876755,8.92336449 57.6583463,10.1364486 58.4087363,11.1439252 C58.4898596,11.246729 58.550702,11.328972 58.6318253,11.4317757 C59.1388456,12.2542056 72.1591264,32.6915888 129.858034,14.2074766 C129.858034,14.2485981 84.7535101,27.9626168 64.7769111,14.2485981 Z M57.4149766,7.29906542 C57.0904836,7.54579439 56.8471139,7.60747664 56.0967239,7.60747664 C55.6302652,7.60747664 55.0826833,7.56635514 54.6770671,7.44299065 C54.5553822,7.38130841 54.5148206,7.31962617 54.5148206,7.11401869 L54.5148206,1.64485981 C54.5148206,1.50093458 54.5553822,1.43925234 54.6770671,1.37757009 C54.8595944,1.3364486 55.3057722,1.31588785 55.7925117,1.31588785 C56.9079563,1.31588785 58.6521061,1.99439252 58.6521061,4.56448598 C58.6318253,6.08598131 57.9828393,6.88785047 57.4149766,7.29906542 Z"/>
  </g>
</svg>
