<svg xmlns="http://www.w3.org/2000/svg" width="150" height="80" viewBox="0 0 150 80">
  <g fill="#FF9925" transform="translate(15 34)">
    <polyline points="117.476 1.05 116.807 1.05 116.807 2.65 116.549 2.65 116.549 1.05 115.88 1.05 115.88 .85 117.476 .85 117.476 1.05"/>
    <polyline points="117.528 .85 117.888 .85 118.558 2.25 118.558 2.25 119.279 .85 119.639 .85 119.639 2.65 119.382 2.65 119.382 1.15 119.382 1.15 118.661 2.65 118.506 2.65 117.785 1.15 117.785 1.15 117.785 2.65 117.528 2.65 117.528 .85"/>
    <polygon points="107.485 6.75 111.605 10.75 115.725 6.75 111.605 2.75"/>
    <path d="M9.63090129,6.65 C10.3519313,6.05 10.8154506,5.15 10.8154506,4.15 C10.8154506,2.3 9.21888412,0.75 7.26180258,0.75 L0,0.75 L0,12.7 L7.46781116,12.7 C9.4248927,12.7 11.0214592,11.2 11.0214592,9.3 C10.9699571,8.25 10.4549356,7.3 9.63090129,6.65 L9.63090129,6.65 L9.63090129,6.65 Z M1.64806867,2.35 L7.26180258,2.35 C8.29184549,2.35 9.11587983,3.15 9.11587983,4.15 C9.11587983,5.15 8.29184549,5.95 7.26180258,5.95 L1.64806867,5.95 L1.64806867,2.35 L1.64806867,2.35 Z M7.46781116,11.15 L1.69957082,11.15 L1.69957082,7.55 L7.46781116,7.55 C8.49785408,7.55 9.32188841,8.35 9.32188841,9.35 C9.32188841,10.35 8.49785408,11.15 7.46781116,11.15 L7.46781116,11.15 L7.46781116,11.15 Z M73.0815451,6.65 C73.8025751,6.05 74.2660944,5.15 74.2660944,4.15 C74.2660944,2.3 72.6695279,0.75 70.7124464,0.75 L63.4506438,0.75 L63.4506438,12.7 L70.9184549,12.7 C72.8755365,12.7 74.472103,11.2 74.472103,9.3 C74.4206009,8.25 73.9055794,7.3 73.0815451,6.65 L73.0815451,6.65 L73.0815451,6.65 Z M65.0987124,2.35 L70.7124464,2.35 C71.7424893,2.35 72.5665236,3.15 72.5665236,4.15 C72.5665236,5.15 71.7424893,5.95 70.7124464,5.95 L65.0987124,5.95 L65.0987124,2.35 L65.0987124,2.35 Z M70.9184549,11.15 L65.1502146,11.15 L65.1502146,7.55 L70.9184549,7.55 C71.9484979,7.55 72.8240343,8.35 72.8240343,9.35 C72.7725322,10.35 71.9484979,11.15 70.9184549,11.15 L70.9184549,11.15 L70.9184549,11.15 Z M14.6266094,0.8 L16.2746781,0.8 L16.2746781,12.75 L14.6266094,12.75 L14.6266094,0.8 L14.6266094,0.8 Z M84,0.5 C80.3948498,0.5 77.4592275,3.3 77.4592275,6.75 C77.4592275,10.2 80.3948498,13 84,13 C87.6051502,13 90.5407725,10.2 90.5407725,6.75 C90.5407725,3.3 87.6051502,0.5 84,0.5 L84,0.5 Z M84,11.4 C81.3218884,11.4 79.1072961,9.3 79.1072961,6.75 C79.1072961,4.2 81.3218884,2.1 84,2.1 C86.6781116,2.1 88.8927039,4.2 88.8927039,6.75 C88.8927039,9.3 86.6781116,11.4 84,11.4 L84,11.4 Z M39.3476395,11.4 C40.944206,11.4 42.4892704,10.65 43.3648069,9.35 L43.8283262,8.7 L45.2188841,9.6 L44.7553648,10.25 C43.5193133,11.95 41.5107296,12.95 39.3476395,12.95 C35.7424893,12.95 32.806867,10.15 32.806867,6.7 C32.806867,3.25 35.7424893,0.45 39.3476395,0.45 C41.5107296,0.45 43.5193133,1.45 44.7553648,3.15 L45.2188841,3.8 L43.8283262,4.7 L43.3648069,4.05 C42.4377682,2.8 40.944206,2 39.3476395,2 C36.6695279,2 34.4549356,4.1 34.4549356,6.65 C34.4549356,9.3 36.6695279,11.4 39.3476395,11.4 Z M57.7339056,0.8 L59.3819742,0.8 L59.3819742,12.75 L57.7339056,12.75 L57.7339056,7.8 L50.1630901,7.8 L50.1630901,12.75 L48.5150215,12.75 L48.5150215,0.8 L50.1630901,0.8 L50.1630901,6.2 L57.7339056,6.2 L57.7339056,0.8 L57.7339056,0.8 Z M30.4377682,4.15 C30.4377682,2.3 28.8412017,0.75 26.8841202,0.75 L20.2918455,0.75 L20.2918455,12.7 L21.9399142,12.7 L21.9399142,7.55 L24.0515021,7.55 L28.3776824,12.7 L30.4892704,12.7 L26.1630901,7.55 L26.8841202,7.55 C28.8412017,7.55 30.4377682,6.05 30.4377682,4.15 Z M21.9399142,5.95 L21.9399142,2.35 L26.8841202,2.35 C27.9141631,2.35 28.7381974,3.15 28.7381974,4.15 C28.7381974,5.15 27.9141631,5.95 26.8841202,5.95 L21.9399142,5.95 L21.9399142,5.95 L21.9399142,5.95 Z M98.9871245,6.6 L104.240343,12.75 L102.077253,12.75 L97.9055794,7.85 L93.7339056,12.75 L91.5708155,12.75 L96.8240343,6.6 L91.8798283,0.8 L94.0429185,0.8 L97.9570815,5.35 L101.871245,0.8 L104.034335,0.8 L98.9871245,6.6 L98.9871245,6.6 Z"/>
  </g>
</svg>
