<?xml version="1.0" encoding="UTF-8"?>
<svg width="150px" height="80px" viewBox="0 0 150 24" version="1.1" xmlns="http://www.w3.org/2000/svg" xmlns:xlink="http://www.w3.org/1999/xlink">
    <!-- Generator: Sketch 46.2 (44496) - http://www.bohemiancoding.com/sketch -->
    <title>capsule</title>
    <desc>Created with Sketch.</desc>
    <defs></defs>
    <g id="Page-1" stroke="none" stroke-width="1" fill="none" fill-rule="evenodd">
        <g id="capsule" fill-rule="nonzero">
            <path d="M12.4740099,12.1302 L9.15546798,15.288 L9.15546798,8.712 L3.45536946,8.712 C1.54751398,8.71199988 0.000696297621,10.1833564 0,11.9988 L0,12.0018 C-1.0811819e-15,13.8177123 1.5470216,15.2898 3.45536946,15.2898 L9.15357635,15.2898 L12.4721182,12.1302 L12.4740099,12.1302 Z" id="Shape" fill="#FFD300"></path>
            <path d="M12.4740099,12.1302 L16.0668374,8.7114 L16.0668374,15.2874 L21.766936,15.2874 C23.6752838,15.2874 25.2223054,13.8153123 25.2223054,11.9994 C25.2223054,10.1834877 23.6752838,8.7114 21.766936,8.7114 L16.0725123,8.7114 L12.4784236,12.1254 L12.4740099,12.1302 Z" id="Shape" fill="#99BFBC"></path>
            <path d="M16.0662069,20.712 L16.0662069,8.7108 L12.4740099,12.129 L9.15483744,15.2874 L9.15483744,20.7066 C9.15483744,22.5225123 10.701859,23.9946 12.6102069,23.9946 C14.5185548,23.9946 16.0655764,22.5225123 16.0655764,20.7066 L16.0662069,20.712 Z" id="Shape" fill="#0F3C6C"></path>
            <path d="M12.4740099,12.1302 L16.0668374,8.7114 L16.0668374,3.288 C16.0668374,1.47208774 14.5198158,1.11192557e-16 12.611468,0 C10.7031201,-1.11192557e-16 9.15609852,1.47208774 9.15609852,3.288 L9.15609852,15.2892 L12.4790542,12.1314 L12.4740099,12.1302 Z" id="Shape" fill="#EF4931"></path>
            <path d="M95.713734,6.3648 L93.7823842,6.3648 C93.6890563,6.3648 93.613399,6.43679261 93.613399,6.5256 L93.613399,13.6596 C93.613399,16.2156 95.3618916,17.8668 98.0669163,17.8668 C100.78203,17.8668 102.537458,16.2156 102.537458,13.6608 L102.537458,6.525 C102.537459,6.48214446 102.519483,6.44106144 102.487518,6.41087085 C102.455554,6.38068027 102.412248,6.36388018 102.367212,6.3642 L100.420099,6.3642 C100.375281,6.3642 100.332299,6.38114138 100.300608,6.41129723 C100.268917,6.44145308 100.251113,6.48235319 100.251113,6.525 L100.251113,13.551 C100.251113,14.991 99.4755468,15.7842 98.0669163,15.7842 C96.6797241,15.7842 95.8827192,14.9706 95.8827192,13.5522 L95.8827192,6.525 C95.8827192,6.43619261 95.807062,6.3642 95.713734,6.3642 L95.713734,6.3648 Z M127.509438,6.3648 L120.40197,6.3648 C120.356935,6.36448018 120.313628,6.38128027 120.281664,6.41147085 C120.2497,6.44166144 120.231723,6.48274446 120.231724,6.5256 L120.231724,17.4756 C120.231724,17.5638 120.307389,17.6358 120.40197,17.6358 L127.509438,17.6358 C127.602759,17.6358 127.678424,17.5638 127.678424,17.475 L127.678424,15.7452 C127.678424,15.6563926 127.602766,15.5844 127.509438,15.5844 L122.517438,15.5844 L122.517438,13.002 L127.02266,13.002 C127.11598,13.002 127.191645,12.93 127.191645,12.8418 L127.191645,11.1588 C127.191645,11.0699926 127.115988,10.998 127.02266,10.998 L122.517438,10.998 L122.517438,8.4168 L127.509438,8.4168 C127.602759,8.4168 127.678424,8.3448 127.678424,8.256 L127.678424,6.5262 C127.678424,6.4362 127.602759,6.3642 127.509438,6.3642 L127.509438,6.3648 Z M84.6124138,15.8772 C82.9452611,15.8772 82.2447291,14.7744 82.1507783,13.83 C82.1460714,13.7823748 82.1192449,13.7392428 82.0776355,13.7124 C82.0360443,13.6855847 81.9841887,13.6774703 81.9357635,13.6902 L80.1179113,14.1846 C80.0381928,14.2066137 79.9867791,14.2801254 79.9962167,14.3586 C80.1916847,16.1046 81.6936355,17.8686 84.6067389,17.8686 C87.3918424,17.8686 88.8502857,16.1166 88.8502857,14.3886 C88.8502857,12.7062 87.6333399,11.4666 85.5985813,11.0826 L83.9465616,10.7586 C83.162798,10.5966 82.7315074,10.1526 82.7315074,9.5106 C82.7315074,8.7168 83.5272512,8.0958 84.5424236,8.0958 C85.8930443,8.0958 86.5116059,8.9298 86.6314089,9.6438 C86.6394504,9.68981776 86.6679489,9.7303033 86.7096094,9.75489314 C86.7512698,9.77948298 86.802048,9.7857901 86.8489458,9.7722 L88.6018522,9.2478 C88.6838227,9.2238 88.734266,9.1422 88.7153498,9.0618 C88.5703251,8.3748 87.8376355,6.1368 84.5266601,6.1368 C82.2775172,6.1368 80.4470542,7.7124 80.4470542,9.6486 C80.4470542,11.2998 81.5895961,12.5076 83.5026601,12.8784 L85.1250443,13.2024 C86.0065419,13.3824 86.5330443,13.878 86.5330443,14.5284 C86.5330443,15.3624 85.7965714,15.8808 84.6098916,15.8808 L84.6124138,15.8772 Z M110.1853,6.3648 L108.236926,6.3648 C108.143844,6.3651305 108.068571,6.4370264 108.068571,6.5256 L108.068571,17.4756 C108.068571,17.5638 108.144236,17.6358 108.237557,17.6358 L115.459783,17.6358 C115.553103,17.6358 115.628768,17.5638 115.628768,17.475 L115.628768,15.714 C115.628768,15.6251926 115.553111,15.5532 115.459783,15.5532 L110.354286,15.5532 L110.354286,6.5256 C110.354286,6.43679261 110.278628,6.3648 110.1853,6.3648 L110.1853,6.3648 Z M43.2343645,8.1996 C44.8838621,8.1996 46.0421675,9.0276 46.4122956,10.4706 C46.4239341,10.5139728 46.4539143,10.5508298 46.4951216,10.5724244 C46.5363288,10.594019 46.5850896,10.5984261 46.6298325,10.5846 L48.4647094,10.0026 C48.5481385,9.97547674 48.5956344,9.89187846 48.5737931,9.8106 C47.8392118,7.1016 45.3328079,6.1368 43.2331034,6.1368 C41.6712512,6.1368 40.2027192,6.693 39.0992709,7.7016 C37.9012414,8.796 37.2656552,10.2864 37.2656552,12.0132 C37.2656552,15.8592 40.2733399,17.8728 43.2444532,17.8728 C46.4349951,17.8728 48.1324138,15.8532 48.61667,14.1228 C48.6390789,14.0406207 48.5904857,13.9560236 48.5056946,13.9296 L46.7212611,13.3734 C46.6777825,13.3603275 46.6306101,13.3643976 46.5903117,13.3846987 C46.5500132,13.4049998 46.5199572,13.4398348 46.5068768,13.4814 C46.3366305,14.019 45.5988966,15.7752 43.2431921,15.7752 C41.487133,15.7752 39.5986601,14.5968 39.5986601,12.0132 C39.5986601,9.3972 41.480197,8.2044 43.2280591,8.2044 L43.2343645,8.1996 Z M54.2139901,17.6352 C54.2852414,17.6352 54.3489261,17.5932 54.3728867,17.5302 L55.4031921,14.8866 L60.0376749,14.8866 L61.0843744,17.5326 C61.107275,17.5969496 61.1706129,17.640344 61.2420099,17.6406 L63.3713498,17.6406 C63.4332454,17.640735 63.4902659,17.608659 63.5199785,17.5569912 C63.5496911,17.5053234 63.5473408,17.4423325 63.5138522,17.3928 L59.0433103,6.4728 C59.0182635,6.41067955 58.9555974,6.36965361 58.8856749,6.3696 L56.628335,6.3696 C56.558836,6.36979575 56.4964397,6.41017011 56.4706995,6.4716 L51.9938522,17.4198 C51.9737752,17.4694231 51.9805681,17.5252621 52.0120281,17.5692083 C52.043488,17.6131544 52.0956088,17.6396117 52.1514877,17.64 L54.2133596,17.64 L54.2139901,17.6352 Z M57.719803,8.994 L59.2299507,12.8508 L56.2115468,12.8508 L57.7204335,8.994 L57.719803,8.994 Z M70.0141084,17.6352 C70.1074286,17.6352 70.1830936,17.5632 70.1830936,17.4744 L70.1830936,13.3584 L72.3345025,13.3584 C74.593734,13.3584 76.1713498,11.9202 76.1713498,9.8604 C76.1713498,7.8024 74.593734,6.3642 72.3345025,6.3642 L68.065734,6.3642 C67.9726524,6.3645305 67.8973787,6.4364264 67.8973793,6.525 L67.8973793,17.475 C67.8973793,17.5632 67.9730443,17.6352 68.0676256,17.6352 L70.016,17.6352 L70.0141084,17.6352 Z M70.1830936,8.3232 L72.0431921,8.3232 C73.1769064,8.3232 73.8528473,8.904 73.8528473,9.8772 C73.8528473,10.83 73.1769064,11.3988 72.0431921,11.3988 L70.1830936,11.3988 L70.1830936,8.3232 Z" id="Shape" fill="#0F3C6C"></path>
        </g>
    </g>
</svg>