<?xml version="1.0" encoding="utf-8"?>
<!-- Generator: Adobe Illustrator 21.0.0, SVG Export Plug-In . SVG Version: 6.00 Build 0)  -->
<svg version="1.1" id="Layer_1" xmlns="http://www.w3.org/2000/svg" xmlns:xlink="http://www.w3.org/1999/xlink" x="0px" y="0px"
	 viewBox="0 0 416.3 87" style="enable-background:new 0 0 416.3 87;" xml:space="preserve">
<style type="text/css">
	.st0{fill:#FCF07D;}
	.st1{fill:#C4383E;}
	.st2{fill:#F05A2B;}
	.st3{fill:#F79721;}
	.st4{fill:#FCCF0F;}
	.st5{fill:#4B5363;}
</style>
<path class="st0" d="M46.4,85.5c-8.1,0-15.6-2.3-22-6.2c-0.9-0.6-0.5-1.9,0.5-1.9h42.9c1.1,0,1.4,1.4,0.5,1.9
	C62,83.2,54.5,85.5,46.4,85.5"/>
<path class="st1" d="M46.4,1.5c17.1,0,31.8,10.2,38.3,24.9c0.3,0.7-0.2,1.5-1,1.5H9c-0.8,0-1.3-0.8-1-1.5
	C14.6,11.7,29.3,1.5,46.4,1.5"/>
<path class="st2" d="M88.4,43.5c0,0.2,0,0.4,0,0.6h-84c0-0.2,0-0.4,0-0.6c0-4.8,0.8-9.4,2.3-13.7c0.1-0.4,0.5-0.7,1-0.7h77.4
	c0.4,0,0.8,0.3,1,0.7C87.6,34.1,88.4,38.7,88.4,43.5"/>
<path class="st3" d="M81.8,66.1H11.6c-0.4,0-0.7-0.2-0.9-0.5C7.2,60,5,53.5,4.5,46.5c0-0.6,0.4-1.1,1-1.1h81.7c0.6,0,1.1,0.5,1,1.1
	C87.8,53.7,85.5,60.3,81.8,66.1"/>
<path class="st4" d="M72.9,76.1H20.3c-0.2,0-0.5-0.1-0.7-0.2c-2.4-2-4.7-4.3-6.6-6.9c-0.5-0.7,0-1.7,0.8-1.7h65.1
	c0.9,0,1.4,1,0.8,1.7C77.8,71.6,75.4,74,72.9,76.1"/>
<path class="st5" d="M143.4,25.6v35.5h-7V39h-0.1l-8.7,15.3h-4.6L114.5,39h-0.1v22.1h-7V25.6h7.1l10.9,20.2h0.1l10.8-20.2H143.4z"/>
<path class="st5" d="M173.6,36.7v24.4h-6.2v-3h-0.1c-1.7,2.2-4.2,3.4-7.3,3.4c-6.8,0-11.7-5-11.7-12.5c0-7.4,5-12.7,11.5-12.7
	c2.9,0,5.4,1.1,7.2,3.2h0.1v-2.8L173.6,36.7z M167.3,49c0-3.9-2.6-6.8-6.2-6.8c-3.5,0-6.3,2.7-6.3,6.8c0,4,2.6,6.7,6.2,6.7
	C164.6,55.6,167.3,53,167.3,49z"/>
<path class="st5" d="M194,36.2c0.2,0,0.4,0,0.5,0v7.2c-0.7,0-1.4-0.1-1.7-0.1c-4,0-6.2,2.7-6.2,6.4v11.3H180V36.7h6.5v3.6h0.1
	C188.5,37.7,191.2,36.2,194,36.2L194,36.2z"/>
<path class="st5" d="M198.3,29.2c0-2.2,1.8-4,4.1-4c2.2,0,4.1,1.8,4.1,4c0,2.2-1.8,4-4.1,4C200.1,33.2,198.3,31.4,198.3,29.2z
	 M199.1,36.7h6.5v24.4h-6.5V36.7z"/>
<path class="st5" d="M234.9,46.6v14.5h-6.5V48.2c0-4.7-1.7-6.1-4.7-6.1c-3.3,0-5.5,2.3-5.5,6.7v12.3h-6.5V36.7h6.5v3.1h0.1
	c2-2.3,4.8-3.6,7.8-3.6C231.2,36.2,234.9,39.1,234.9,46.6z"/>
<path class="st5" d="M263.9,48.6c0,0.8,0,1.9-0.2,2.3h-17.1c0.8,2.9,3.1,4.7,6.2,4.7c2.6,0,4.5-1.1,5.8-2.8l4.2,4
	c-2.1,2.6-5.6,4.6-10.5,4.6c-7.2,0-12.6-5-12.6-12.6c0-7.4,5.2-12.6,12.1-12.6C259.1,36.2,263.9,41.5,263.9,48.6L263.9,48.6z
	 M246.7,46.3h10.8c-0.7-2.6-2.4-4.3-5.3-4.3C249.5,42,247.4,43.4,246.7,46.3z"/>
<path class="st5" d="M283.9,25.6h7v29.2h15.8v6.3h-22.8V25.6z"/>
<path class="st5" d="M335.6,36.7v24.4h-6.2v-3h-0.1c-1.7,2.2-4.2,3.4-7.3,3.4c-6.8,0-11.7-5-11.7-12.5c0-7.4,5-12.7,11.5-12.7
	c2.9,0,5.4,1.1,7.2,3.2h0.1v-2.8L335.6,36.7z M329.3,49c0-3.9-2.6-6.8-6.2-6.8c-3.5,0-6.3,2.7-6.3,6.8c0,4,2.6,6.7,6.2,6.7
	C326.5,55.6,329.3,53,329.3,49z"/>
<path class="st5" d="M365.9,36.7L352.8,71h-6.7l4.3-11.4l-9.8-22.9h6.8l6,15.1h0.1l5.6-15.1H365.9z"/>
<path class="st5" d="M391.5,48.6c0,0.8,0,1.9-0.2,2.3h-17.1c0.8,2.9,3.1,4.7,6.2,4.7c2.6,0,4.5-1.1,5.8-2.8l4.2,4
	c-2.1,2.6-5.6,4.6-10.5,4.6c-7.2,0-12.6-5-12.6-12.6c0-7.4,5.2-12.6,12.1-12.6C386.7,36.2,391.5,41.5,391.5,48.6L391.5,48.6z
	 M374.2,46.3H385c-0.7-2.6-2.4-4.3-5.3-4.3C377.1,42,375,43.4,374.2,46.3z"/>
<path class="st5" d="M411.2,36.3v7.2c-0.7,0-1.4-0.1-1.7-0.1c-4,0-6.2,2.7-6.2,6.4v11.3h-6.5V36.7h6.5v3.6h0.1c1.9-2.6,4.5-4,7.4-4
	C410.9,36.2,411.1,36.2,411.2,36.3z"/>
</svg>
