<?xml version="1.0" encoding="UTF-8"?>
<svg width="150px" height="80px" viewBox="0 0 150 24" version="1.1" xmlns="http://www.w3.org/2000/svg" xmlns:xlink="http://www.w3.org/1999/xlink">
    <!-- Generator: Sketch 46.2 (44496) - http://www.bohemiancoding.com/sketch -->
    <title>marine_layer</title>
    <desc>Created with Sketch.</desc>
    <defs></defs>
    <g id="Page-1" stroke="none" stroke-width="1" fill="none" fill-rule="evenodd">
        <g id="marine_layer" fill-rule="nonzero">
            <path d="M13.3019608,23.8588235 C10.7607843,23.8588235 8.40784314,23.2094118 6.4,22.1082353 C6.11764706,21.9388235 6.24313725,21.5717647 6.55686275,21.5717647 L20.0156863,21.5717647 C20.3607843,21.5717647 20.454902,21.9670588 20.172549,22.1082353 C18.1960784,23.2094118 15.8431373,23.8588235 13.3019608,23.8588235" id="Shape" fill="#FCF07D"></path>
            <path d="M13.3019608,0.141176471 C18.6666667,0.141176471 23.2784314,3.02117647 25.3176471,7.17176471 C25.4117647,7.36941176 25.254902,7.59529412 25.0039216,7.59529412 L1.56862745,7.59529412 C1.31764706,7.59529412 1.16078431,7.36941176 1.25490196,7.17176471 C3.3254902,3.02117647 7.9372549,0.141176471 13.3019608,0.141176471" id="Shape" fill="#C4383E"></path>
            <path d="M26.4784314,12 C26.4784314,12.0564706 26.4784314,12.1129412 26.4784314,12.1694118 L0.125490196,12.1694118 C0.125490196,12.1129412 0.125490196,12.0564706 0.125490196,12 C0.125490196,10.6447059 0.376470588,9.34588235 0.847058824,8.13176471 C0.878431373,8.01882353 1.00392157,7.93411765 1.16078431,7.93411765 L25.4431373,7.93411765 C25.5686275,7.93411765 25.6941176,8.01882353 25.7568627,8.13176471 C26.227451,9.34588235 26.4784314,10.6447059 26.4784314,12" id="Shape" fill="#F05A2B"></path>
            <path d="M24.4078431,18.3811765 L2.38431373,18.3811765 C2.25882353,18.3811765 2.16470588,18.3247059 2.10196078,18.24 C1.00392157,16.6588235 0.31372549,14.8235294 0.156862745,12.8470588 C0.156862745,12.6776471 0.282352941,12.5364706 0.470588235,12.5364706 L26.1019608,12.5364706 C26.2901961,12.5364706 26.4470588,12.6776471 26.4156863,12.8470588 C26.2901961,14.88 25.5686275,16.7435294 24.4078431,18.3811765" id="Shape" fill="#F79721"></path>
            <path d="M21.6156863,21.2047059 L5.11372549,21.2047059 C5.05098039,21.2047059 4.95686275,21.1764706 4.89411765,21.1482353 C4.14117647,20.5835294 3.41960784,19.9341176 2.82352941,19.2 C2.66666667,19.0023529 2.82352941,18.72 3.0745098,18.72 L23.4980392,18.72 C23.7803922,18.72 23.9372549,19.0023529 23.7490196,19.2 C23.1529412,19.9341176 22.4,20.6117647 21.6156863,21.2047059" id="Shape" fill="#FCCF0F"></path>
            <polygon id="Shape" fill="#4B5363" points="43.7333333 6.94588235 43.7333333 16.9694118 41.5372549 16.9694118 41.5372549 10.7294118 41.5058824 10.7294118 38.7764706 15.0494118 37.3333333 15.0494118 34.6666667 10.7294118 34.6352941 10.7294118 34.6352941 16.9694118 32.4392157 16.9694118 32.4392157 6.94588235 34.6666667 6.94588235 38.0862745 12.6494118 38.1176471 12.6494118 41.5058824 6.94588235"></polygon>
            <path d="M53.2078431,10.08 L53.2078431,16.9694118 L51.2627451,16.9694118 L51.2627451,16.1223529 L51.2313725,16.1223529 C50.6980392,16.7435294 49.9137255,17.0823529 48.9411765,17.0823529 C46.8078431,17.0823529 45.2705882,15.6705882 45.2705882,13.5529412 C45.2705882,11.4635294 46.8392157,9.96705882 48.8784314,9.96705882 C49.7882353,9.96705882 50.572549,10.2776471 51.1372549,10.8705882 L51.1686275,10.8705882 L51.1686275,10.08 L53.2078431,10.08 Z M51.2313725,13.5529412 C51.2313725,12.4517647 50.4156863,11.6329412 49.2862745,11.6329412 C48.1882353,11.6329412 47.3098039,12.3952941 47.3098039,13.5529412 C47.3098039,14.6823529 48.1254902,15.4447059 49.254902,15.4447059 C50.3843137,15.4164706 51.2313725,14.6823529 51.2313725,13.5529412 Z" id="Shape" fill="#4B5363"></path>
            <path d="M59.6078431,9.93882353 C59.6705882,9.93882353 59.7333333,9.93882353 59.7647059,9.93882353 L59.7647059,11.9717647 C59.545098,11.9717647 59.3254902,11.9435294 59.2313725,11.9435294 C57.9764706,11.9435294 57.2862745,12.7058824 57.2862745,13.7505882 L57.2862745,16.9411765 L55.2156863,16.9411765 L55.2156863,10.08 L57.254902,10.08 L57.254902,11.0964706 L57.2862745,11.0964706 C57.8823529,10.3623529 58.7294118,9.93882353 59.6078431,9.93882353 L59.6078431,9.93882353 Z" id="Shape" fill="#4B5363"></path>
            <path d="M60.9568627,7.96235294 C60.9568627,7.34117647 61.5215686,6.83294118 62.2431373,6.83294118 C62.9333333,6.83294118 63.5294118,7.34117647 63.5294118,7.96235294 C63.5294118,8.58352941 62.9647059,9.09176471 62.2431373,9.09176471 C61.5215686,9.09176471 60.9568627,8.58352941 60.9568627,7.96235294 Z M61.2078431,10.08 L63.2470588,10.08 L63.2470588,16.9694118 L61.2078431,16.9694118 L61.2078431,10.08 Z" id="Shape" fill="#4B5363"></path>
            <path d="M72.4392157,12.8752941 L72.4392157,16.9694118 L70.4,16.9694118 L70.4,13.3270588 C70.4,12 69.8666667,11.6047059 68.9254902,11.6047059 C67.8901961,11.6047059 67.2,12.2541176 67.2,13.4964706 L67.2,16.9694118 L65.1607843,16.9694118 L65.1607843,10.08 L67.2,10.08 L67.2,10.9552941 L67.2313725,10.9552941 C67.8588235,10.3058824 68.7372549,9.93882353 69.6784314,9.93882353 C71.2784314,9.93882353 72.4392157,10.7576471 72.4392157,12.8752941 Z" id="Shape" fill="#4B5363"></path>
            <path d="M81.5372549,13.44 C81.5372549,13.6658824 81.5372549,13.9764706 81.4745098,14.0894118 L76.1098039,14.0894118 C76.3607843,14.9082353 77.0823529,15.4164706 78.054902,15.4164706 C78.8705882,15.4164706 79.4666667,15.1058824 79.8745098,14.6258824 L81.1921569,15.7552941 C80.5333333,16.4894118 79.4352941,17.0541176 77.8980392,17.0541176 C75.6392157,17.0541176 73.945098,15.6423529 73.945098,13.4964706 C73.945098,11.4070588 75.5764706,9.93882353 77.7411765,9.93882353 C80.0313725,9.93882353 81.5372549,11.4352941 81.5372549,13.44 L81.5372549,13.44 Z M76.1411765,12.7905882 L79.5294118,12.7905882 C79.3098039,12.0564706 78.7764706,11.5764706 77.8666667,11.5764706 C77.0196078,11.5764706 76.3607843,11.9717647 76.1411765,12.7905882 Z" id="Shape" fill="#4B5363"></path>
            <polygon id="Shape" fill="#4B5363" points="87.8117647 6.94588235 90.0078431 6.94588235 90.0078431 15.1905882 94.9647059 15.1905882 94.9647059 16.9694118 87.8117647 16.9694118"></polygon>
            <path d="M104.031373,10.08 L104.031373,16.9694118 L102.086275,16.9694118 L102.086275,16.1223529 L102.054902,16.1223529 C101.521569,16.7435294 100.737255,17.0823529 99.7647059,17.0823529 C97.6313725,17.0823529 96.0941176,15.6705882 96.0941176,13.5529412 C96.0941176,11.4635294 97.6627451,9.96705882 99.7019608,9.96705882 C100.611765,9.96705882 101.396078,10.2776471 101.960784,10.8705882 L101.992157,10.8705882 L101.992157,10.08 L104.031373,10.08 Z M102.054902,13.5529412 C102.054902,12.4517647 101.239216,11.6329412 100.109804,11.6329412 C99.0117647,11.6329412 98.1333333,12.3952941 98.1333333,13.5529412 C98.1333333,14.6823529 98.9490196,15.4447059 100.078431,15.4447059 C101.176471,15.4164706 102.054902,14.6823529 102.054902,13.5529412 Z" id="Shape" fill="#4B5363"></path>
            <polygon id="Shape" fill="#4B5363" points="113.537255 10.08 109.427451 19.7647059 107.32549 19.7647059 108.67451 16.5458824 105.6 10.08 107.733333 10.08 109.615686 14.3435294 109.647059 14.3435294 111.403922 10.08"></polygon>
            <path d="M121.568627,13.44 C121.568627,13.6658824 121.568627,13.9764706 121.505882,14.0894118 L116.141176,14.0894118 C116.392157,14.9082353 117.113725,15.4164706 118.086275,15.4164706 C118.901961,15.4164706 119.498039,15.1058824 119.905882,14.6258824 L121.223529,15.7552941 C120.564706,16.4894118 119.466667,17.0541176 117.929412,17.0541176 C115.670588,17.0541176 113.976471,15.6423529 113.976471,13.4964706 C113.976471,11.4070588 115.607843,9.93882353 117.772549,9.93882353 C120.062745,9.93882353 121.568627,11.4352941 121.568627,13.44 L121.568627,13.44 Z M116.141176,12.7905882 L119.529412,12.7905882 C119.309804,12.0564706 118.776471,11.5764706 117.866667,11.5764706 C117.05098,11.5764706 116.392157,11.9717647 116.141176,12.7905882 Z" id="Shape" fill="#4B5363"></path>
            <path d="M127.74902,9.96705882 L127.74902,12 C127.529412,12 127.309804,11.9717647 127.215686,11.9717647 C125.960784,11.9717647 125.270588,12.7341176 125.270588,13.7788235 L125.270588,16.9694118 L123.231373,16.9694118 L123.231373,10.08 L125.270588,10.08 L125.270588,11.0964706 L125.301961,11.0964706 C125.898039,10.3623529 126.713725,9.96705882 127.623529,9.96705882 C127.654902,9.93882353 127.717647,9.93882353 127.74902,9.96705882 Z" id="Shape" fill="#4B5363"></path>
        </g>
    </g>
</svg>