<?xml version="1.0" encoding="utf-8"?>
<!-- Generator: Adobe Illustrator 22.0.0, SVG Export Plug-In . SVG Version: 6.00 Build 0)  -->
<svg version="1.1" baseProfile="tiny" id="Layer_1" xmlns="http://www.w3.org/2000/svg" xmlns:xlink="http://www.w3.org/1999/xlink"
	 x="0px" y="0px" viewBox="0 0 3000 3000" xml:space="preserve">
<g>
	<path fill="#8DD4FD" d="M2319.8,2157.3L2319.8,2157.3c-381.7,229.9-844.7,281.9-1267.8,142.3l-429.8-141.8L2319.8,2157.3z"/>
</g>
<g>
	<rect x="1697.6" y="1473.2" fill="#DCB24E" width="684.7" height="684.7"/>
</g>
<image width="443" height="1695" xlink:href="E2D4DDB7AECD6C0C.png"  transform="matrix(0.24 0 0 0.24 1926.48 1473.12)">
</image>
<g>
	<polygon fill="#B38230" points="2219.3,1062 2594.6,1062 2382.2,1473.2 2006.9,1473.2 	"/>
</g>
<g>
	<g>
		<rect x="874.7" y="1248.4" fill="#1DBF4B" width="822.8" height="909.5"/>
	</g>
	
		<image width="3446" height="3808" id="Texture_Group_2_" xlink:href="E2D4DDB7AECD6C0D.png"  transform="matrix(0.24 0 0 0.24 872.64 1246.08)">
	</image>
</g>
<g>
	<polygon fill="#29E467" points="874.7,1248.4 874.7,2157.9 533.8,2157.9 763.8,1248.4 	"/>
</g>
<g>
	<rect x="2063.2" y="1934" fill="#F1F1F2" width="277.8" height="175.8"/>
</g>
<g>
	<g>
		<path fill="#1DBF4B" d="M809,1249.5c-3.4,24.3-6.9,48.6-10.3,72.8c-8.2,58.3-16.5,116.7-24.7,175c-10,70.9-20,141.8-30,212.6
			c-8.6,60.8-17.2,121.6-25.8,182.4c-2.9,20.2-5.7,40.5-8.6,60.7c-1.3,9.3-3.9,19.3-4.1,28.8c0,0.4-0.1,0.8-0.2,1.2
			c-0.5,3.3,4.6,4.8,5.1,1.4c3.4-24.3,6.9-48.6,10.3-72.8c8.2-58.3,16.5-116.7,24.7-175c10-70.9,20-141.8,30-212.6
			c8.6-60.8,17.2-121.6,25.8-182.4c2.9-20.2,5.7-40.5,8.6-60.7c1.3-9.3,3.9-19.3,4.1-28.8c0-0.4,0.1-0.8,0.2-1.2
			C814.6,1247.5,809.5,1246.1,809,1249.5L809,1249.5z"/>
	</g>
</g>
<image width="702" height="1950" xlink:href="E2D4DDB7AECD6C0B.png"  transform="matrix(0.24 0 0 0.24 1777.6801 1789.2)">
</image>
<g>
	<circle fill="#FFFFFF" cx="1135.6" cy="1364.3" r="18.6"/>
</g>
<g>
	<circle fill="#FFFFFF" cx="1422.3" cy="1364.3" r="18.6"/>
</g>
<g>
	<g>
		<path fill="#FFFFFF" d="M1419.6,1362c0,60.7,0,121.5,0,182.2c0,40.5,0,81,0,121.5c0,20.6,1.2,41.8-0.5,62.3
			c-5.3,63.2-54.5,116.3-117,126.8c-62.7,10.6-126.2-23.4-152.3-81.3c-12.7-28.2-12.3-57.1-12.3-87c0-36.9,0-73.9,0-110.8
			c0-69.9,0-139.8,0-209.8c0-1.4,0-2.7,0-4.1c0-3.4-5.3-3.4-5.3,0c0,63.1,0,126.2,0,189.3c0,41,0,82.1,0,123.1
			c0,24.6-1.8,50.4,3.8,74.6c13.5,58.3,63.1,103.6,122.4,111.8c58.6,8.1,117.7-20.8,147.2-72.1c12.8-22.3,19.2-47.6,19.4-73.3
			c0-7,0-14.1,0-21.1c0-36.3,0-72.7,0-109c0-73.1,0-146.2,0-219.2c0-1.4,0-2.7,0-4.1C1424.9,1358.6,1419.6,1358.6,1419.6,1362
			L1419.6,1362z"/>
	</g>
</g>
<g>
	<path fill="#0E1B62" d="M1507.9,2266.2l123.9-510.8h230.5c24.2,0,42,22.7,36.3,46.2L1793,2237.8c-4.1,16.7-19.1,28.4-36.3,28.4
		H1507.9z"/>
</g>
<g>
	<path fill="#8CD3FD" d="M1423.9,603.5v314.9l-75.1-81.1h-272.6c-21.7,0-39.3-19-39.3-42.5V603.5c0-23.4,17.6-42.5,39.3-42.5h308.3
		C1406.3,561,1423.9,580.1,1423.9,603.5z"/>
</g>
<g>
	<path fill="#F1F1F1" d="M2555.3,817.2v156c0,23.4-19,42.5-42.5,42.5h-577.5l-81.1,81.1V817.2c0-23.4,19-42.5,42.5-42.5h616.1
		C2536.2,774.7,2555.3,793.8,2555.3,817.2z"/>
</g>
<g>
	<path fill="#FBEAE4" d="M1385.5,1248.4H811.5c4.2-31,31.7-62.4,95.3-85.8c1.1-0.4,2.1-0.8,3.1-1.2c0.5-0.2,1-0.4,1.5-0.6
		c39.6-16.8,50.3-52.1,71.2-87.5c3-5.1,6.2-10.3,9.4-15.3c17.4-27.4,37.1-53.4,58.9-77.5c22.4-24.7,48.3-53.2,84.9-49.9
		c-2.7,49,25.2,74.8,59.2,90.3c21.6,9.8,47.9,15.7,72.8,23.6c24.8,7.8,48.2,17.6,64,35c31.7,35.1,20.9,88.7,30.4,129.9
		C1365.6,1223.5,1374.5,1237.7,1385.5,1248.4z"/>
</g>
<g>
	<path fill="#FBEAE4" d="M1670,1211.2c-2.2,21.6-6.2,30.3-11.1,37.2h-273.5c24-11.3,46.6-29.2,64.5-47.4
		c30.9-31.4,58.8-64.9,83.5-100.1c7.3-10.5,14.4-21.2,22.4-31.3c3.7-4.7,7.5-9.2,11.7-13.6c13.2-13.8,31.3-24.9,51.1-30.3
		C1609.7,1089.3,1676.7,1147.5,1670,1211.2z"/>
</g>
<g>
	<path fill="#EFFBFF" d="M1871,1755.3h-255.2c-13.5,0-25.2,9.2-28.5,22.3l-109.5,452.3c-4.5,18.5,9.4,36.3,28.5,36.3h240.8
		L1871,1755.3z"/>
</g>
<g>
	<g>
		<path fill="#29449F" d="M1644.1,2214.7c-1.3,23.4-36.5,23.6-36.5,0C1607.6,2191.1,1642.8,2191.3,1644.1,2214.7
			c0.2,3.4,5.5,3.4,5.3,0c-0.7-12.8-10.2-23.5-23.5-23.5c-12.8,0-23.6,10.7-23.5,23.5c0.1,12.4,10,22.9,22.4,23.5
			c13.8,0.7,24-10.2,24.7-23.5C1649.6,2211.3,1644.3,2211.3,1644.1,2214.7z"/>
	</g>
</g>
<g>
	<g>
		<path fill="#324DA4" d="M1694.2,1786.6c25.4,0,50.9,0,76.3,0c3.4,0,3.4-5.3,0-5.3c-25.4,0-50.9,0-76.3,0
			C1690.8,1781.3,1690.7,1786.6,1694.2,1786.6L1694.2,1786.6z"/>
	</g>
</g>
<g>
	<g>
		<path fill="#F9D8CC" d="M991.8,1229.9c-4.4,5.9-9.2,12.1-13.1,18.5H811.5c4.2-31,31.7-62.4,95.3-85.8c1.1-0.4,2.1-0.8,3.1-1.2
			c0.5-0.2,1-0.4,1.5-0.6c39.6-16.8,50.3-52.1,71.2-87.5c3-5.1,6.2-10.3,9.4-15.3c9.4,14.3,20.3,28,27,43.4
			C1037.4,1143.7,1020.2,1191.9,991.8,1229.9z"/>
	</g>
</g>
<g>
	<g>
		<path fill="#FDF4F0" d="M1253.1,1213.6c3.7-8.6,5.1-18,2.5-28.9c-2.2-9.5-7.3-18.5-14.5-25.9c-7.2-7.4-16.9-13.6-21.4-22.7
			c-4.4-9-4.2-19.3-1.4-28.6c4.7-15.1,15.5-29,26.1-41.6c2.9-3.5,23.6-21.5,23.6-21.5c24.8,7.8,48.2,17.6,64,35
			c31.7,35.1,20.9,88.7,30.4,129.9c3.3,14.1,12.2,28.3,23.1,39.1c0,0-160.3,0-160.3,0C1236.7,1237.2,1247.5,1226.3,1253.1,1213.6z"
			/>
	</g>
</g>
<g>
	<g>
		<path fill="#F9D8CC" d="M1670,1211.2c-2.2,21.6-6.2,30.3-11.1,37.2h-110c8.6-13,20.7-25,27.6-38.8c6.2-12.3,8.2-26.2,5.7-39.4
			c-2.9-15.3-11.4-29.2-17.4-43.7c-7.4-18.1-10.7-37.7-9.2-56.8c3.7-4.7,7.5-9.2,11.7-13.6c13.2-13.8,31.3-24.9,51.1-30.3
			C1609.7,1089.3,1676.7,1147.5,1670,1211.2z"/>
	</g>
</g>
<g>
	<g>
		<line fill="#4157C5" x1="2427.8" y1="1473.2" x2="2632.2" y2="1309.9"/>
	</g>
	<g>
		<g>
			<path fill="#C6B142" d="M2429.7,1475c59.6-47.6,119.3-95.3,178.9-142.9c8.5-6.8,17-13.6,25.5-20.4c2.7-2.1-1.1-5.9-3.8-3.8
				c-59.6,47.6-119.3,95.3-178.9,142.9c-8.5,6.8-17,13.6-25.5,20.4C2423.3,1473.4,2427.1,1477.2,2429.7,1475L2429.7,1475z"/>
		</g>
	</g>
</g>
<g>
	<g>
		<line fill="#4157C5" x1="2427.8" y1="1515" x2="2680" y2="1462.1"/>
	</g>
	<g>
		<g>
			<path fill="#C6B142" d="M2428.6,1517.5c73.7-15.5,147.4-30.9,221.1-46.4c10.3-2.2,20.7-4.3,31-6.5c3.3-0.7,1.9-5.8-1.4-5.1
				c-73.7,15.5-147.4,30.9-221.1,46.4c-10.3,2.2-20.7,4.3-31,6.5C2423.8,1513.1,2425.2,1518.2,2428.6,1517.5L2428.6,1517.5z"/>
		</g>
	</g>
</g>
<g>
	<g>
		<line fill="#4157C5" x1="2427.8" y1="1551.4" x2="2608.3" y2="1628.4"/>
	</g>
	<g>
		<g>
			<path fill="#C6B142" d="M2426.5,1553.7c52.6,22.4,105.2,44.9,157.8,67.3c7.6,3.2,15.1,6.4,22.7,9.7c3.1,1.3,5.8-3.2,2.7-4.6
				c-52.6-22.4-105.2-44.9-157.8-67.3c-7.6-3.2-15.1-6.4-22.7-9.7C2426.1,1547.8,2423.4,1552.4,2426.5,1553.7L2426.5,1553.7z"/>
		</g>
	</g>
</g>
<g>
	<path fill="#F1DF44" d="M1955.9,845.3l10.5,32.4c0.6,1.8,2.3,3.1,4.2,3.1h34.1c4.3,0,6.1,5.5,2.6,8.1l-27.6,20
		c-1.6,1.1-2.2,3.1-1.6,5l10.5,32.4c1.3,4.1-3.4,7.5-6.9,5l-27.6-20c-1.6-1.1-3.7-1.1-5.2,0l-27.6,20c-3.5,2.5-8.2-0.9-6.9-5
		l10.5-32.4c0.6-1.8-0.1-3.8-1.6-5l-27.6-20c-3.5-2.5-1.7-8.1,2.6-8.1h34.1c1.9,0,3.6-1.2,4.2-3.1l10.5-32.4
		C1948.8,841.2,1954.6,841.2,1955.9,845.3z"/>
</g>
<g>
	<path fill="#F1DF44" d="M2083.3,845.3l10.5,32.4c0.6,1.8,2.3,3.1,4.2,3.1h34.1c4.3,0,6.1,5.5,2.6,8.1l-27.6,20
		c-1.6,1.1-2.2,3.1-1.6,5l10.5,32.4c1.3,4.1-3.4,7.5-6.9,5l-27.6-20c-1.6-1.1-3.7-1.1-5.2,0l-27.6,20c-3.5,2.5-8.2-0.9-6.9-5
		l10.5-32.4c0.6-1.8-0.1-3.8-1.6-5l-27.6-20c-3.5-2.5-1.7-8.1,2.6-8.1h34.1c1.9,0,3.6-1.2,4.2-3.1l10.5-32.4
		C2076.2,841.2,2082,841.2,2083.3,845.3z"/>
</g>
<g>
	<path fill="#F1DF44" d="M2210.8,845.3l10.5,32.4c0.6,1.8,2.3,3.1,4.2,3.1h34.1c4.3,0,6.1,5.5,2.6,8.1l-27.6,20
		c-1.6,1.1-2.2,3.1-1.6,5l10.5,32.4c1.3,4.1-3.4,7.5-6.9,5l-27.6-20c-1.6-1.1-3.7-1.1-5.2,0l-27.6,20c-3.5,2.5-8.2-0.9-6.9-5
		l10.5-32.4c0.6-1.8-0.1-3.8-1.6-5l-27.6-20c-3.5-2.5-1.7-8.1,2.6-8.1h34.1c1.9,0,3.6-1.2,4.2-3.1l10.5-32.4
		C2203.6,841.2,2209.4,841.2,2210.8,845.3z"/>
</g>
<g>
	<path fill="#F1DF44" d="M2338.2,845.3l10.5,32.4c0.6,1.8,2.3,3.1,4.2,3.1h34.1c4.3,0,6.1,5.5,2.6,8.1l-27.6,20
		c-1.6,1.1-2.2,3.1-1.6,5l10.5,32.4c1.3,4.1-3.4,7.5-6.9,5l-27.6-20c-1.6-1.1-3.7-1.1-5.2,0l-27.6,20c-3.5,2.5-8.2-0.9-6.9-5
		l10.5-32.4c0.6-1.8-0.1-3.8-1.6-5l-27.6-20c-3.5-2.5-1.7-8.1,2.6-8.1h34.1c1.9,0,3.6-1.2,4.2-3.1l10.5-32.4
		C2331,841.2,2336.8,841.2,2338.2,845.3z"/>
</g>
<g>
	<path fill="#F1DF44" d="M2465.6,845.3l10.5,32.4c0.6,1.8,2.3,3.1,4.2,3.1h34.1c4.3,0,6.1,5.5,2.6,8.1l-27.6,20
		c-1.6,1.1-2.2,3.1-1.6,5l10.5,32.4c1.3,4.1-3.4,7.5-6.9,5l-27.6-20c-1.6-1.1-3.7-1.1-5.2,0l-27.6,20c-3.5,2.5-8.2-0.9-6.9-5
		l10.5-32.4c0.6-1.8-0.1-3.8-1.6-5l-27.6-20c-3.5-2.5-1.7-8.1,2.6-8.1h34.1c1.9,0,3.6-1.2,4.2-3.1l10.5-32.4
		C2458.5,841.2,2464.3,841.2,2465.6,845.3z"/>
</g>
<g>
	<g>
		<path fill="#29449F" d="M688.3,1204.3c-57.5-46.9-115.1-93.7-172.6-140.6c-8.1-6.6-16.3-13.2-24.4-19.9c-2.6-2.1-6.4,1.6-3.8,3.8
			c57.5,46.9,115.1,93.7,172.6,140.6c8.1,6.6,16.3,13.2,24.4,19.9C687.2,1210.2,690.9,1206.4,688.3,1204.3L688.3,1204.3z"/>
	</g>
</g>
<g>
	<g>
		<path fill="#29449F" d="M678.8,1245.8c-40.4-13.2-80.8-26.4-121.2-39.6c-64.7-21.2-129.5-42.3-194.2-63.5
			c-14.8-4.8-29.6-9.7-44.4-14.5c-3.3-1.1-4.6,4.1-1.4,5.1c40.4,13.2,80.8,26.4,121.2,39.6c64.7,21.2,129.5,42.3,194.2,63.5
			c14.8,4.8,29.6,9.7,44.4,14.5C680.7,1252,682.1,1246.9,678.8,1245.8L678.8,1245.8z"/>
	</g>
</g>
<g>
	<g>
		<path fill="#29449F" d="M664.5,1279.7c-51.3,14.9-102.5,29.8-153.8,44.7c-7.3,2.1-14.7,4.3-22,6.4c-3.3,1-1.9,6.1,1.4,5.1
			c51.3-14.9,102.5-29.8,153.8-44.7c7.3-2.1,14.7-4.3,22-6.4C669.1,1283.9,667.8,1278.7,664.5,1279.7L664.5,1279.7z"/>
	</g>
</g>
<g>
	<path fill="#28399F" d="M1172.5,681.9v92.5c0,4.6-3.7,8.4-8.4,8.4h-43.4c-4.6,0-8.4-3.7-8.4-8.4v-92.5c0-4.6,3.7-8.4,8.4-8.4h43.4
		C1168.8,673.5,1172.5,677.2,1172.5,681.9z"/>
</g>
<g>
	<path fill="#FFFFFF" d="M1343.7,691.9l-11.9,58.5c-1.4,6.7-7.3,11.5-14.1,11.5h-145.1v-72l64.9-15.3l51.9-74.3
		c16.1,0,27.5,15.6,22.6,30.9l-13.8,43.4h31.4C1338.6,674.7,1345.5,683,1343.7,691.9z"/>
</g>
<g>
	<circle fill="#29E467" cx="1674" cy="2010.8" r="82"/>
</g>
<g>
	<polygon fill="#8DDEFE" points="1851.3,1836.7 1820.1,1965.1 1752.9,1988.5 1598.3,2042.3 1516.4,2070.8 1546.9,1944.7 	"/>
</g>
<g>
	<polygon fill="#8DDEFE" points="1807.9,2013.7 1800.9,2044.2 1732.8,2067.9 1663.4,2092.1 1497.3,2149.9 1503.6,2121.7 
		1626.9,2077.9 1752.9,2033.2 	"/>
</g>
<g>
	<path fill="#1EBE57" d="M1663.4,2092.1c-13.4-1.8-25.9-6.7-36.5-14.2l125.9-44.7c-3.8,13.3-10.8,25.1-20.1,34.7L1663.4,2092.1z"/>
</g>
<g>
	<path fill="#1EBE57" d="M1752.9,1988.5l-154.6,53.8c-4.1-9.7-6.3-20.4-6.3-31.5c0-45.3,36.7-82,82-82
		C1711.6,1928.8,1743.2,1954,1752.9,1988.5z"/>
</g>
<g>
	<polygon fill="#FFFFFF" points="1655.9,2053.7 1622,2019.8 1634.5,2007.3 1655.9,2028.6 1710.4,1974.1 1722.9,1986.7 	"/>
</g>
<image width="253" height="1216" xlink:href="E2D4DDB7AECD6C14.png"  transform="matrix(0.24 0 0 0.24 1696.5601 1464.48)">
</image>
<image width="1740" height="341" xlink:href="E2D4DDB7AECD6C17.png"  transform="matrix(0.24 0 0 0.24 2006.88 1391.52)">
</image>
<g>
	<polyline fill="#1DBF57" points="874.7,2157.9 707.9,1983.8 533.8,2157.9 	"/>
</g>
<g>
	<line fill="#4157C5" x1="2237" y1="1062" x2="2024.6" y2="1473.2"/>
	
		<rect x="1899.4" y="1266.7" transform="matrix(0.4589 -0.8885 0.8885 0.4589 26.7275 2579.106)" fill="#AD782C" width="462.7" height="1.8"/>
</g>
<g>
	<line fill="#4157C5" x1="2255.2" y1="1062" x2="2042.8" y2="1473.2"/>
	
		<rect x="1917.7" y="1266.7" transform="matrix(0.4589 -0.8885 0.8885 0.4589 36.588 2595.2969)" fill="#AD782C" width="462.7" height="1.8"/>
</g>
<g>
	<line fill="#4157C5" x1="2273.4" y1="1062" x2="2061.1" y2="1473.2"/>
	
		<rect x="1935.9" y="1266.7" transform="matrix(0.4589 -0.8885 0.8885 0.4589 46.4489 2611.4883)" fill="#AD782C" width="462.7" height="1.8"/>
</g>
<g>
	<line fill="#4157C5" x1="2291.6" y1="1062" x2="2079.3" y2="1473.2"/>
	
		<rect x="1954.1" y="1266.7" transform="matrix(0.4589 -0.8885 0.8885 0.4589 56.3098 2627.6799)" fill="#AD782C" width="462.7" height="1.8"/>
</g>
<g>
	<line fill="#4157C5" x1="2309.9" y1="1062" x2="2097.5" y2="1473.2"/>
	
		<rect x="1972.3" y="1266.7" transform="matrix(0.4589 -0.8885 0.8885 0.4589 66.1708 2643.8713)" fill="#AD782C" width="462.7" height="1.8"/>
</g>
<g>
	<line fill="#4157C5" x1="2328.1" y1="1062" x2="2115.7" y2="1473.2"/>
	
		<rect x="1990.5" y="1266.7" transform="matrix(0.4589 -0.8885 0.8885 0.4589 76.0317 2660.0627)" fill="#AD782C" width="462.7" height="1.8"/>
</g>
<g>
	<line fill="#4157C5" x1="2346.3" y1="1062" x2="2134" y2="1473.2"/>
	
		<rect x="2008.8" y="1266.7" transform="matrix(0.4589 -0.8885 0.8885 0.4589 85.8922 2676.2537)" fill="#AD782C" width="462.7" height="1.8"/>
</g>
<g>
	<line fill="#4157C5" x1="2364.5" y1="1062" x2="2152.2" y2="1473.2"/>
	
		<rect x="2027" y="1266.7" transform="matrix(0.4589 -0.8885 0.8885 0.4589 95.7531 2692.4451)" fill="#AD782C" width="462.7" height="1.8"/>
</g>
<g>
	<line fill="#4157C5" x1="2382.8" y1="1062" x2="2170.4" y2="1473.2"/>
	
		<rect x="2045.2" y="1266.7" transform="matrix(0.4589 -0.8885 0.8885 0.4589 105.614 2708.6365)" fill="#AD782C" width="462.7" height="1.8"/>
</g>
<g>
	<line fill="#4157C5" x1="2401" y1="1062" x2="2188.6" y2="1473.2"/>
	
		<rect x="2063.4" y="1266.7" transform="matrix(0.4589 -0.8885 0.8885 0.4589 115.475 2724.8281)" fill="#AD782C" width="462.7" height="1.8"/>
</g>
<g>
	<line fill="#4157C5" x1="2419.2" y1="1062" x2="2206.8" y2="1473.2"/>
	
		<rect x="2081.7" y="1266.7" transform="matrix(0.4589 -0.8885 0.8885 0.4589 125.3354 2741.0188)" fill="#AD782C" width="462.7" height="1.8"/>
</g>
<g>
	<line fill="#4157C5" x1="2437.4" y1="1062" x2="2225.1" y2="1473.2"/>
	
		<rect x="2099.9" y="1266.7" transform="matrix(0.4589 -0.8885 0.8885 0.4589 135.1963 2757.2102)" fill="#AD782C" width="462.7" height="1.8"/>
</g>
<g>
	<line fill="#4157C5" x1="2455.7" y1="1062" x2="2243.3" y2="1473.2"/>
	
		<rect x="2118.1" y="1266.7" transform="matrix(0.4589 -0.8885 0.8885 0.4589 145.0573 2773.4019)" fill="#AD782C" width="462.7" height="1.8"/>
</g>
<g>
	<line fill="#4157C5" x1="2473.9" y1="1062" x2="2261.5" y2="1473.2"/>
	
		<rect x="2136.3" y="1266.7" transform="matrix(0.4589 -0.8885 0.8885 0.4589 154.9182 2789.5933)" fill="#AD782C" width="462.7" height="1.8"/>
</g>
<g>
	<line fill="#4157C5" x1="2492.1" y1="1062" x2="2279.7" y2="1473.2"/>
	
		<rect x="2154.6" y="1266.7" transform="matrix(0.4589 -0.8885 0.8885 0.4589 164.7787 2805.7842)" fill="#AD782C" width="462.7" height="1.8"/>
</g>
<g>
	<line fill="#4157C5" x1="2510.3" y1="1062" x2="2298" y2="1473.2"/>
	
		<rect x="2172.8" y="1266.7" transform="matrix(0.4589 -0.8885 0.8885 0.4589 174.6396 2821.9756)" fill="#AD782C" width="462.7" height="1.8"/>
</g>
<g>
	<line fill="#4157C5" x1="2528.5" y1="1062" x2="2316.2" y2="1473.2"/>
	
		<rect x="2191" y="1266.7" transform="matrix(0.4589 -0.8885 0.8885 0.4589 184.5005 2838.167)" fill="#AD782C" width="462.7" height="1.8"/>
</g>
<g>
	<line fill="#4157C5" x1="2546.8" y1="1062" x2="2334.4" y2="1473.2"/>
	
		<rect x="2209.2" y="1266.7" transform="matrix(0.4589 -0.8885 0.8885 0.4589 194.3615 2854.3586)" fill="#AD782C" width="462.7" height="1.8"/>
</g>
<g>
	<line fill="#4157C5" x1="2565" y1="1062" x2="2352.6" y2="1473.2"/>
	
		<rect x="2227.4" y="1266.7" transform="matrix(0.4589 -0.8885 0.8885 0.4589 204.2219 2870.5493)" fill="#AD782C" width="462.7" height="1.8"/>
</g>
<g>
	<line fill="#4157C5" x1="2583.2" y1="1062" x2="2370.9" y2="1473.2"/>
	
		<rect x="2245.7" y="1266.7" transform="matrix(0.4589 -0.8885 0.8885 0.4589 214.0828 2886.7407)" fill="#AD782C" width="462.7" height="1.8"/>
</g>
<g>
	<g>
		<path fill="#FFFFFF" d="M2119.8,2077.3c-2.8-25.4,6.7-67.3,41.7-58.9c8.7,2.1,15.8,7.5,20,15.3c1.8,3.3,2.9,7,3.4,10.7
			c0.3,1.9,0.4,3.8,0.3,5.8c-0.2,3.7-0.9,12-9.1,6.5c-6.3-4.2-3.6-21.1-2.5-27.1c1.7-9.4,5.3-18.2,9.3-26.8
			c6.4-13.8,15.2-32.9,31.5-36.8c15.9-3.8,30,10.8,38,22.7c8.9,13.2,14.1,28.9,14.2,44.8c0,7.3-0.7,15-3.4,21.9
			c-1.4,3.6-4,8.5-8.1,9.6c-6.9,1.9-10.9-5-12.6-10.3c-5.6-17.5,2.7-39.3,13.1-53.4c8.3-11.3,30.5-32.8,46.4-26.3
			c3.2,1.3,4.5-3.8,1.4-5.1c-17.4-7.1-40.4,13.6-50.2,25.8c-12.8,16-23,42.2-15.1,62.5c6.4,16.5,23.7,14.9,29.9-0.9
			c7.9-20,3.5-45.1-6.3-63.5c-8-15.2-22.6-33-41.3-33.8c-23.3-1.1-36,25.9-43.9,43.7c-4.9,10.9-8.8,22.3-9.4,34.3
			c-0.4,7.8-0.3,19.6,7.5,24.2c6,3.5,12.7,0.8,14.8-5.7c2.7-8.2,0.4-18.4-3.6-25.7c-10.5-19.3-36.8-24.7-54.1-11.2
			c-16.9,13.2-19.6,37.5-17.4,57.4C2114.9,2080.7,2120.2,2080.7,2119.8,2077.3L2119.8,2077.3z"/>
	</g>
</g>
</svg>
